<svg width="126" height="124" viewBox="0 0 126 124" fill="none" xmlns="http://www.w3.org/2000/svg">
<mask id="mask0_198_379" style="mask-type:luminance" maskUnits="userSpaceOnUse" x="1" y="0" width="124" height="124">
<path d="M1.37811 0H124.908V124H1.37811V0Z" fill="white"/>
</mask>
<g mask="url(#mask0_198_379)">
<path d="M124.908 62C124.908 96.2432 97.2561 124 63.1428 124C29.0296 124 1.37811 96.2432 1.37811 62C1.37811 27.7568 29.0325 0 63.1428 0C97.2531 0 124.908 27.7598 124.908 62Z" fill="#1A1918"/>
<path d="M64.1914 38.316L79.937 77.7022L56.1531 58.714L64.1914 38.316ZM92.1428 86.7778L67.9428 27.7007C67.2502 25.9972 65.8487 25.0952 64.1899 25.0952C62.5296 25.0952 61.0252 25.9972 60.334 27.7007L33.7311 92.4995H42.8252L53.3473 65.7835L84.7487 91.4972C86.012 92.5305 86.9252 93 88.109 93C90.4826 93 92.5546 91.1961 92.5546 88.595C92.5546 88.1699 92.4075 87.4967 92.1399 86.7749L92.1428 86.7778Z" fill="white"/>
</g>
</svg>
