<svg width="126" height="125" viewBox="0 0 126 125" fill="none" xmlns="http://www.w3.org/2000/svg">
<g clip-path="url(#clip0_199_393)">
<path d="M43.5028 87.4941C43.5028 87.4941 42.6757 89.9844 41.4276 91.2285C41.0635 91.6348 40.6152 91.9568 40.114 92.1722C39.6128 92.3876 39.0706 92.4911 38.5253 92.4756C36.4777 93.0253 34.3965 93.4409 32.2948 93.7197C32.2948 93.7197 35.202 94.1357 38.5253 94.5508C39.7684 94.5508 39.7684 94.5508 40.5995 94.9668C42.6757 94.9668 43.5028 93.7197 43.5028 93.7197V87.4941ZM81.6962 87.4941C81.6962 87.4941 82.5272 89.9844 83.7714 91.2285C84.1365 91.6346 84.5855 91.9564 85.0873 92.1717C85.5891 92.3871 86.1318 92.4908 86.6776 92.4756C88.7235 93.0255 90.8031 93.4411 92.9032 93.7197C92.9032 93.7197 89.9999 94.1357 86.2626 94.5508C85.0184 94.5508 85.0184 94.5508 84.1864 94.9668C81.6962 94.9668 81.2802 93.7197 81.2802 93.7197L81.6962 87.4941Z" fill="#E9654B"/>
<path d="M107.849 46.3945C107.849 71.1553 87.7762 91.2285 63.0155 91.2285C38.2538 91.2285 18.1815 71.1553 18.1815 46.3945C18.1815 21.6367 38.2538 1.56445 63.0155 1.56445C87.7762 1.56445 107.849 21.6367 107.849 46.3945Z" fill="#B6CFEA"/>
<path d="M106.19 46.3945C106.19 70.2402 86.8612 89.5684 63.0155 89.5684C39.1737 89.5684 19.8446 70.2402 19.8446 46.3945C19.8446 22.5527 39.1737 3.22266 63.0155 3.22266C86.8612 3.22266 106.189 22.5518 106.189 46.3936L106.19 46.3945Z" fill="#E6F5F8"/>
<path d="M98.3007 47.2266C98.3007 66.7148 82.5048 82.5117 63.0155 82.5117C43.5292 82.5117 27.7294 66.7148 27.7294 47.2256C27.7294 27.7402 43.5302 11.9404 63.0155 11.9404C82.5048 11.9404 98.3007 27.7422 98.3007 47.2266Z" fill="#D0E8F0"/>
<path d="M42.2596 63.8311C42.2596 63.8311 45.1659 110.74 45.1659 111.572C45.1659 111.984 45.5819 112.815 43.5028 113.647C41.4276 114.476 34.786 116.138 34.786 116.138H44.7499C49.3163 116.138 49.3163 112.4 49.3163 111.572C49.3163 110.74 50.5604 92.8916 50.5604 92.8916C50.5604 92.8916 50.9755 114.063 50.9755 114.891C50.9755 115.723 50.5604 116.966 47.6571 117.798C45.5819 118.214 39.3524 119.458 39.3524 119.458H48.9012C54.7147 119.458 54.7147 115.723 54.7147 115.723L55.9579 97.042C55.9579 97.042 56.3739 115.723 56.3739 117.798C56.3739 119.458 55.1298 120.705 50.5604 121.532C47.6571 122.364 43.9188 123.195 43.9188 123.195H54.7147C60.1083 122.78 60.9403 119.041 60.9403 119.041L70.0721 72.5479L42.2596 63.8311Z" fill="#EE794B"/>
<path d="M83.7714 63.8311C83.7714 63.8311 80.868 110.74 80.868 111.572C80.868 111.984 80.452 112.815 82.5282 113.647C84.6024 114.476 91.244 116.138 91.244 116.138H81.2802C76.7137 116.138 76.7137 112.4 76.7137 111.572C76.7137 110.74 75.4706 92.8916 75.4706 92.8916C75.4706 92.8916 75.0546 114.063 75.0546 114.891C75.0546 115.723 75.4706 116.966 78.3768 117.798L86.6776 119.458H77.1307C71.3202 119.458 71.3202 115.723 71.3202 115.723L70.0731 97.042C70.0731 97.042 69.6571 115.723 69.6571 117.798C69.6571 119.458 70.9052 120.705 75.4716 121.532C78.3778 122.364 82.1122 123.195 82.1122 123.195H71.3202C65.9217 122.78 65.0897 119.041 65.0897 119.041L55.9589 72.5488L83.7714 63.8311ZM84.1864 41C84.1864 52.624 74.6386 61.7559 63.4305 61.7559C52.2235 61.7559 42.6747 52.208 42.6747 41C42.6747 29.793 52.2235 20.2441 63.4305 20.2441C74.6386 20.2441 84.1864 29.377 84.1864 41Z" fill="#EE794B"/>
<mask id="mask0_199_393" style="mask-type:luminance" maskUnits="userSpaceOnUse" x="41" y="40" width="44" height="50">
<path d="M41.5155 40.0391H84.4843V89.8438H41.5155V40.0391Z" fill="white"/>
</mask>
<g mask="url(#mask0_199_393)">
<mask id="mask1_199_393" style="mask-type:luminance" maskUnits="userSpaceOnUse" x="42" y="40" width="43" height="58">
<path d="M84.1864 40.1689L81.6962 97.042H44.3348L42.2596 40.1689" fill="white"/>
</mask>
<g mask="url(#mask1_199_393)">
<path d="M100.376 52.207C100.376 72.6123 83.8358 89.1533 63.4305 89.1533C43.0262 89.1533 26.4852 72.6123 26.4852 52.208C26.4852 31.8027 43.0262 15.2627 63.4305 15.2627C83.8358 15.2627 100.376 31.8018 100.376 52.207Z" fill="#EE794B"/>
</g>
</g>
<mask id="mask2_199_393" style="mask-type:luminance" maskUnits="userSpaceOnUse" x="0" y="0" width="126" height="125">
<path d="M0.499878 0H125.5V125H0.499878V0Z" fill="black" fill-opacity="0.22"/>
</mask>
<g mask="url(#mask2_199_393)">
<mask id="mask3_199_393" style="mask-type:luminance" maskUnits="userSpaceOnUse" x="0" y="0" width="126" height="125">
<path d="M0.499878 0H125.5V125H0.499878V0Z" fill="white"/>
</mask>
<g mask="url(#mask3_199_393)">
<path d="M82.9432 63.831C82.9432 63.831 85.4335 41.828 82.1112 33.5273C75.8856 18.997 61.3553 20.2441 61.3553 20.2441C61.3553 20.2441 69.6561 23.5634 70.0721 36.0185C70.4882 44.7353 70.0721 57.6054 70.0721 57.6054L82.9432 63.831Z" fill="#E34E3B"/>
</g>
</g>
<mask id="mask4_199_393" style="mask-type:luminance" maskUnits="userSpaceOnUse" x="0" y="0" width="126" height="125">
<path d="M0.499878 0H125.5V125H0.499878V0Z" fill="black" fill-opacity="0.502"/>
</mask>
<g mask="url(#mask4_199_393)">
<mask id="mask5_199_393" style="mask-type:luminance" maskUnits="userSpaceOnUse" x="0" y="0" width="126" height="125">
<path d="M0.499878 0H125.5V125H0.499878V0Z" fill="white"/>
</mask>
<g mask="url(#mask5_199_393)">
<path d="M57.6171 29.793C57.6169 30.1744 57.5416 30.552 57.3954 30.9043C57.2493 31.2566 57.0352 31.5766 56.7654 31.8462C56.4956 32.1157 56.1753 32.3295 55.8228 32.4753C55.4704 32.6211 55.0927 32.696 54.7113 32.6958C54.3299 32.6956 53.9523 32.6203 53.6 32.4742C53.2477 32.328 52.9276 32.1139 52.6581 31.8441C52.3885 31.5743 52.1748 31.254 52.029 30.9016C51.8832 30.5491 51.8083 30.1714 51.8085 29.79C51.8089 29.0198 52.1152 28.2812 52.6602 27.7368C53.2051 27.1924 53.944 26.8868 54.7142 26.8872C55.4845 26.8876 56.2231 27.194 56.7675 27.7389C57.3118 28.2838 57.6175 29.0227 57.6171 29.793Z" fill="#FBDFC3"/>
</g>
</g>
<path d="M70.4882 72.1318C70.4882 79.1895 67.1659 83.7598 63.0155 83.7598C58.8651 83.7598 55.5419 78.3613 55.5419 71.3047C55.5419 71.3047 58.8651 77.9453 63.4305 77.9453C67.997 77.9453 70.4882 72.1318 70.4882 72.1318Z" fill="#010101"/>
<path d="M70.4882 72.1318C70.4882 76.7021 67.1659 79.1894 63.0155 79.1894C58.8651 79.1894 55.9579 75.8701 55.9579 71.7197C55.9579 71.7197 59.2801 75.8701 63.8466 75.8701C68.413 75.8701 70.4882 72.1318 70.4882 72.1318Z" fill="white"/>
<path d="M90.412 52.624C90.412 59.7305 84.6522 65.4902 77.5458 65.4902C70.4384 65.4902 64.6747 59.7305 64.6747 52.624C64.6747 45.5166 70.4384 39.7529 77.5458 39.7529C84.6522 39.7529 90.412 45.5166 90.412 52.624ZM61.3554 52.624C61.3554 59.7305 55.5917 65.4902 48.4843 65.4902C41.3778 65.4902 35.618 59.7305 35.618 52.624C35.618 45.5166 41.3778 39.7529 48.4852 39.7529C55.5917 39.7529 61.3554 45.5166 61.3554 52.624Z" fill="#E9654B"/>
<path d="M87.5096 52.624C87.5096 58.125 83.0467 62.5879 77.5458 62.5879C72.0448 62.5879 67.5809 58.125 67.5809 52.624C67.5809 47.1191 72.0438 42.6602 77.5458 42.6602C83.0458 42.6602 87.5096 47.1191 87.5096 52.624ZM57.6171 52.624C57.6171 58.125 53.1581 62.5879 47.6571 62.5879C42.1522 62.5879 37.6932 58.125 37.6932 52.624C37.693 51.3155 37.9505 50.0197 38.4512 48.8107C38.9518 47.6017 39.6857 46.5032 40.611 45.5779C41.5363 44.6527 42.6348 43.9187 43.8438 43.4181C45.0528 42.9174 46.3486 42.6599 47.6571 42.6602C53.1581 42.6602 57.6171 47.1191 57.6171 52.624Z" fill="white"/>
<path d="M50.5604 51.377C50.5606 51.7585 50.4857 52.1363 50.3398 52.4889C50.194 52.8414 49.9802 53.1618 49.7105 53.4317C49.4409 53.7016 49.1207 53.9158 48.7683 54.062C48.4159 54.2082 48.0381 54.2835 47.6566 54.2837C47.2751 54.2839 46.8973 54.2089 46.5447 54.0631C46.1921 53.9173 45.8718 53.7034 45.6018 53.4338C45.3319 53.1641 45.1178 52.844 44.9716 52.4916C44.8254 52.1392 44.7501 51.7614 44.7499 51.3799C44.7494 50.6094 45.055 49.8702 45.5994 49.325C46.1439 48.7798 46.8827 48.4732 47.6532 48.4727C48.4237 48.4721 49.1629 48.7777 49.7081 49.3222C50.2533 49.8667 50.5599 50.6064 50.5604 51.377ZM80.452 51.377C80.4592 51.763 80.3893 52.1466 80.2465 52.5054C80.1037 52.8642 79.8909 53.1909 79.6204 53.4665C79.3499 53.742 79.0272 53.961 78.6712 54.1104C78.3152 54.2599 77.9329 54.3369 77.5468 54.337C77.1606 54.337 76.7783 54.2601 76.4223 54.1108C76.0662 53.9615 75.7434 53.7427 75.4728 53.4672C75.2023 53.1917 74.9893 52.865 74.8464 52.5063C74.7035 52.1476 74.6335 51.764 74.6405 51.3779C74.6542 50.6165 74.9662 49.8909 75.5095 49.3571C76.0527 48.8234 76.7837 48.5242 77.5453 48.524C78.3069 48.5237 79.0381 48.8224 79.5817 49.3558C80.1253 49.8891 80.4378 50.6155 80.452 51.377Z" fill="#010101"/>
<path d="M17.3534 57.6054C17.0765 57.6225 16.799 57.5806 16.5395 57.4824C16.2799 57.3841 16.0442 57.2319 15.848 57.0356C15.6518 56.8394 15.4995 56.6037 15.4013 56.3442C15.303 56.0846 15.2611 55.8072 15.2782 55.5302V38.9257C15.2609 38.6486 15.3026 38.371 15.4006 38.1112C15.4986 37.8515 15.6506 37.6155 15.8466 37.4189C16.0432 37.2229 16.2792 37.0708 16.539 36.9729C16.7987 36.8749 17.0763 36.8332 17.3534 36.8505C17.6304 36.8334 17.9079 36.8753 18.1674 36.9735C18.427 37.0718 18.6627 37.224 18.8589 37.4203C19.0551 37.6165 19.2074 37.8522 19.3056 38.1117C19.4038 38.3713 19.4458 38.6487 19.4286 38.9257V55.5312C19.4628 56.0878 19.2528 56.6376 18.8564 57.0351C18.6603 57.2312 18.4249 57.3836 18.1657 57.482C17.9065 57.5805 17.6293 57.6229 17.3525 57.6064L17.3534 57.6054ZM107.85 57.6054C107.573 57.6221 107.295 57.5797 107.036 57.4811C106.777 57.3824 106.541 57.2297 106.346 57.0331C106.15 56.8372 105.997 56.602 105.899 56.3429C105.8 56.0838 105.758 55.8068 105.774 55.5302V38.9257C105.758 38.6483 105.8 38.3706 105.899 38.1109C105.997 37.8511 106.15 37.6153 106.347 37.4189C106.542 37.223 106.778 37.071 107.037 36.973C107.296 36.875 107.573 36.8332 107.85 36.8505C108.126 36.8332 108.403 36.875 108.662 36.973C108.921 37.071 109.157 37.223 109.352 37.4189C109.753 37.8163 109.958 38.3661 109.925 38.9257V55.5312C109.942 55.8081 109.9 56.0856 109.801 56.345C109.702 56.6044 109.549 56.8397 109.352 57.0351C109.157 57.2315 108.921 57.384 108.662 57.4825C108.403 57.581 108.125 57.6232 107.849 57.6064L107.85 57.6054Z" fill="#B6CFEA"/>
<path d="M50.9764 13.1875C50.9764 13.7379 50.7578 14.2657 50.3686 14.6549C49.9794 15.0441 49.4516 15.2627 48.9012 15.2627C48.3508 15.2627 47.823 15.0441 47.4338 14.6549C47.0447 14.2657 46.826 13.7379 46.826 13.1875C46.826 12.6371 47.0447 12.1093 47.4338 11.7201C47.823 11.3309 48.3508 11.1123 48.9012 11.1123C49.4516 11.1123 49.9794 11.3309 50.3686 11.7201C50.7578 12.1093 50.9764 12.6371 50.9764 13.1875ZM33.9588 69.2285C33.733 69.257 33.5037 69.2345 33.2877 69.1627C33.0717 69.0909 32.8746 68.9715 32.7108 68.8135C27.7293 62.5879 25.2381 54.6992 25.2381 46.8105C25.2159 40.2521 26.9353 33.8053 30.2205 28.1289C33.5508 22.726 38.0996 18.1776 43.5028 14.8477C43.8496 14.6921 44.2363 14.6485 44.6091 14.7229C44.9819 14.7973 45.3223 14.9859 45.5829 15.2627C45.7369 15.6092 45.7795 15.9949 45.7048 16.3667C45.6301 16.7384 45.4418 17.0778 45.1659 17.3379C40.0162 20.2474 35.7286 24.4685 32.7389 29.5721C29.7492 34.6756 28.164 40.4798 28.1444 46.3945C28.1328 53.7781 30.6203 60.9482 35.202 66.7383C35.618 67.1543 35.618 68.3984 34.786 68.8135C34.3709 69.2295 34.3709 69.2285 33.9588 69.2285Z" fill="white"/>
<mask id="mask6_199_393" style="mask-type:luminance" maskUnits="userSpaceOnUse" x="0" y="0" width="126" height="125">
<path d="M0.499878 0H125.5V125H0.499878V0Z" fill="black" fill-opacity="0.251"/>
</mask>
<g mask="url(#mask6_199_393)">
<mask id="mask7_199_393" style="mask-type:luminance" maskUnits="userSpaceOnUse" x="0" y="0" width="126" height="125">
<path d="M0.499878 0H125.5V125H0.499878V0Z" fill="white"/>
</mask>
<g mask="url(#mask7_199_393)">
<path d="M81.6962 88.7373V85.4199C75.8856 88.7383 69.6561 92.0605 62.1874 92.0605C53.8827 92.0605 48.4852 88.3262 43.0907 85.4199L43.5028 88.7383C43.5028 88.7383 49.7333 95.3838 62.5995 95.3838C74.6385 94.9678 81.6962 88.7373 81.6962 88.7373Z" fill="#E9654B"/>
</g>
</g>
</g>
<defs>
<clipPath id="clip0_199_393">
<rect width="125" height="125" fill="white" transform="translate(0.499878)"/>
</clipPath>
</defs>
</svg>
