<svg width="126" height="124" viewBox="0 0 126 124" fill="none" xmlns="http://www.w3.org/2000/svg">
<g clip-path="url(#clip0_196_328)">
<path d="M35.1564 49.7036C35.1564 51.2177 35.3201 52.4446 35.6088 53.3444C35.974 54.357 36.4136 55.3414 36.9242 56.2896C37.1311 56.6152 37.2129 56.9423 37.2129 57.2294C37.2129 57.6379 36.9659 58.0464 36.4317 58.4564L33.8409 60.1732C33.4704 60.4188 33.1013 60.5417 32.7725 60.5417C32.3603 60.5417 31.9495 60.3374 31.5373 59.9689C30.9836 59.3766 30.4883 58.7328 30.0582 58.0464C29.5984 57.2609 29.1729 56.456 28.7829 55.634C25.576 59.3962 21.5463 61.2772 16.6951 61.2772C13.2412 61.2772 10.4853 60.296 8.47038 58.332C6.4555 56.3696 5.42871 53.7529 5.42871 50.4806C5.42871 47.0056 6.66085 44.1832 9.16978 42.0565C11.6787 39.9312 15.0091 38.8671 19.2442 38.8671C20.643 38.8671 22.0805 38.9899 23.6028 39.1942C25.1237 39.3984 26.6862 39.727 28.3305 40.094V37.1088C28.3305 34.0008 27.6728 31.8326 26.399 30.5658C25.082 29.2974 22.8617 28.6847 19.6966 28.6847C18.2576 28.6847 16.7769 28.8475 15.2561 29.216C13.7441 29.5744 12.2597 30.0393 10.8141 30.6072C10.3466 30.8152 9.86589 30.9927 9.37514 31.1385C9.16235 31.2083 8.94116 31.2497 8.7174 31.2614C8.14151 31.2614 7.85431 30.8514 7.85431 29.993V27.9891C7.85431 27.3349 7.93615 26.8436 8.14151 26.5579C8.34687 26.2723 8.7174 25.9852 9.29329 25.6995C10.7323 24.9625 12.4585 24.3498 14.4734 23.8584C16.4882 23.3271 18.6266 23.0814 20.8885 23.0814C25.7814 23.0814 29.3588 24.1855 31.6623 26.3936C33.9242 28.6033 35.0745 31.9555 35.0745 36.4547V49.7036H35.1564ZM18.4629 55.9196C19.8201 55.9196 21.2174 55.6754 22.6981 55.1841C24.1772 54.6942 25.4942 53.7929 26.6043 52.5674C27.262 51.7904 27.7546 50.9306 28.0031 49.9493C28.2855 48.7845 28.4234 47.5896 28.4138 46.3914V44.6746C27.1665 44.3726 25.9031 44.1403 24.6296 43.979C23.3141 43.8162 22.0403 43.7333 20.765 43.7333C18.0106 43.7333 15.9957 44.2661 14.6385 45.3687C13.2814 46.4728 12.6237 48.0268 12.6237 50.0722C12.6237 51.9947 13.1177 53.4258 14.1445 54.4086C15.1326 55.4298 16.5701 55.9196 18.4629 55.9196ZM51.4808 60.3374C50.7397 60.3374 50.2472 60.2146 49.9183 59.9275C49.5894 59.6818 49.3007 59.1105 49.0552 58.3335L39.3915 26.7207C39.1445 25.9038 39.0225 25.3724 39.0225 25.0853C39.0225 24.4312 39.3498 24.0641 40.0091 24.0641H44.0388C44.8201 24.0641 45.3543 24.1855 45.6415 24.4726C45.9704 24.7183 46.2174 25.2896 46.4644 26.0666L53.3722 53.1402L59.7859 26.0666C59.9927 25.2496 60.2382 24.7183 60.5686 24.4726C60.896 24.2269 61.4719 24.0626 62.2129 24.0626H65.5016C66.2829 24.0626 66.8186 24.1855 67.146 24.4726C67.4763 24.7183 67.7635 25.2896 67.9287 26.0666L74.4228 53.4673L81.5359 26.0666C81.7829 25.2496 82.0716 24.7183 82.3588 24.4726C82.6876 24.2269 83.2219 24.0626 83.9629 24.0626H87.7873C88.4451 24.0626 88.8141 24.3897 88.8141 25.0853C88.8141 25.2896 88.7739 25.4953 88.7323 25.7395C88.6681 26.0884 88.572 26.4307 88.4451 26.7622L78.5344 58.375C78.2888 59.1919 78.0001 59.7232 77.6713 59.9689C77.3439 60.2146 76.8082 60.3774 76.1088 60.3774H72.5731C71.7918 60.3774 71.2576 60.2546 70.9287 59.9689C70.5998 59.6818 70.3111 59.1505 70.1475 58.3335L63.7754 31.954L57.4421 58.2906C57.2367 59.109 56.9912 59.6404 56.6609 59.926C56.3335 60.2131 55.7576 60.336 55.0165 60.336H51.4808V60.3374ZM104.317 61.4415C102.18 61.4415 100.042 61.1958 97.9853 60.7045C95.9302 60.2146 94.326 59.6833 93.2576 59.0691C92.5984 58.7006 92.1475 58.2921 91.9823 57.9236C91.8223 57.563 91.7382 57.1736 91.7353 56.7795V54.6927C91.7353 53.8343 92.0641 53.4258 92.6817 53.4258C92.9287 53.4258 93.1742 53.4658 93.4213 53.5487C93.6683 53.6301 94.0388 53.7944 94.4481 53.9572C95.8469 54.5714 97.3692 55.0612 98.9719 55.3883C100.582 55.7137 102.221 55.8783 103.865 55.8797C106.456 55.8797 108.47 55.4298 109.869 54.5299C111.268 53.6301 112.008 52.3218 112.008 50.6449C112.008 49.4994 111.636 48.5581 110.897 47.7826C110.156 47.0056 108.759 46.31 106.744 45.6558L100.781 43.8162C97.7799 42.8749 95.5597 41.4852 94.204 39.6441C92.8454 37.8444 92.146 35.8405 92.146 33.7137C92.146 31.9969 92.518 30.4844 93.2576 29.1746C93.9922 27.8593 95.002 26.7162 96.2189 25.8224C97.4495 24.8796 98.8469 24.184 100.494 23.6956C102.139 23.2042 103.866 23 105.673 23C106.578 23 107.524 23.0414 108.429 23.1628C109.374 23.2856 110.237 23.4499 111.101 23.6127C111.89 23.8022 112.672 24.0209 113.445 24.2684C114.185 24.5126 114.761 24.7582 115.171 25.0039C115.747 25.331 116.158 25.6581 116.406 26.0251C116.652 26.3537 116.775 26.8036 116.775 27.3764V29.2974C116.775 30.1558 116.447 30.6057 115.829 30.6057C115.502 30.6057 114.966 30.4429 114.267 30.1158C111.923 29.0517 109.292 28.5204 106.372 28.5204C104.028 28.5204 102.179 28.8889 100.903 29.6659C99.6296 30.4429 98.9704 31.6284 98.9704 33.3067C98.9704 34.4508 99.3826 35.432 100.205 36.209C101.027 36.986 102.548 37.763 104.728 38.4586L110.567 40.2982C113.527 41.2395 115.665 42.5478 116.939 44.2247C118.214 45.9015 118.831 47.8226 118.831 49.9493C118.831 51.7076 118.461 53.303 117.762 54.6942C117.032 56.0935 116.009 57.3205 114.761 58.2921C113.485 59.3133 111.964 60.0503 110.197 60.5816C108.345 61.1544 106.414 61.44 104.317 61.44V61.4415Z" fill="#252F3E"/>
<path fill-rule="evenodd" clip-rule="evenodd" d="M112.089 81.3149C98.5611 91.2531 78.9048 96.5293 62.006 96.5293C38.3215 96.5293 16.9822 87.818 0.863175 73.3407C-0.412123 72.1951 0.739663 70.6411 2.26198 71.541C19.695 81.602 41.201 87.6952 63.445 87.6952C78.4539 87.6952 94.9421 84.5872 110.115 78.2084C112.377 77.1842 114.31 79.678 112.089 81.3149Z" fill="#FF9900"/>
<path fill-rule="evenodd" clip-rule="evenodd" d="M117.723 74.9361C115.997 72.7279 106.292 73.8735 101.893 74.4033C100.576 74.5676 100.371 73.4221 101.563 72.5637C109.293 67.1661 121.999 68.7201 123.479 70.5198C124.96 72.3594 123.069 84.9957 115.83 91.0474C114.722 91.9887 113.652 91.4988 114.146 90.2719C115.79 86.2226 119.45 77.1028 117.723 74.9361Z" fill="#FF9900"/>
</g>
<defs>
<clipPath id="clip0_196_328">
<rect width="125" height="124" fill="white" transform="translate(0.0714111)"/>
</clipPath>
</defs>
</svg>
