<svg width="126" height="125" viewBox="0 0 126 125" fill="none" xmlns="http://www.w3.org/2000/svg">
<path d="M108.022 112.843L63.2784 125L18.5492 112.843L8.22632 0H118.345L108.022 112.843Z" fill="#2659A5"/>
<path d="M63.2856 8.92822V114.569L63.3898 114.583L99.5836 104.797L107.928 8.92822H63.2856Z" fill="#449BD6"/>
<path d="M62.8825 36.8926L30.5471 50.5155L31.62 63.9884L62.8825 50.4707L96.1263 36.1103L97.5117 22.3218L62.8825 36.8926Z" fill="white"/>
<path d="M30.5471 50.6699L31.6335 63.9886L63.2856 50.6251V37.2021L30.5471 50.6699Z" fill="url(#paint0_linear_200_547)"/>
<path d="M97.5117 22.3218L63.2856 36.9572V50.5947L96.1429 36.1707L97.5117 22.3218Z" fill="url(#paint1_linear_200_547)"/>
<path d="M30.5471 50.5947L31.6137 63.9333L79.3116 64.0822L78.246 81.876L62.5481 86.3176L47.4585 82.4874L46.5408 71.4447H32.5314L34.3533 92.7551L62.6971 101.191L90.8929 92.9041L94.5356 50.5947H30.5471Z" fill="url(#paint2_linear_200_547)"/>
<path opacity="0.05" d="M63.2492 50.8188H31.2314L32.2939 64.1366L63.2481 64.2261L63.2492 50.8188ZM63.2481 86.4438L63.0866 86.4886L48.0731 82.6636L47.1596 71.6366H33.1919L35.0221 92.9168L63.2481 101.34V86.4438Z" fill="#1D1D1B"/>
<path d="M29.0596 22.3218H97.5117L96.1544 37.202H30.7075L29.0596 22.3218Z" fill="url(#paint3_linear_200_547)"/>
<path opacity="0.05" d="M63.2856 22.3218H29.0596L30.6929 37.202H63.2856V22.3218Z" fill="#1D1D1B"/>
<defs>
<linearGradient id="paint0_linear_200_547" x1="46.9085" y1="63.9886" x2="46.9085" y2="37.2021" gradientUnits="userSpaceOnUse">
<stop offset="0.39" stop-color="#D9D9D9" stop-opacity="0"/>
<stop offset="1" stop-color="#D9D9D9"/>
</linearGradient>
<linearGradient id="paint1_linear_200_547" x1="1737.97" y1="987.024" x2="1737.97" y2="458.303" gradientUnits="userSpaceOnUse">
<stop offset="0.39" stop-color="#D9D9D9" stop-opacity="0"/>
<stop offset="1" stop-color="#D9D9D9"/>
</linearGradient>
<linearGradient id="paint2_linear_200_547" x1="30.5471" y1="75.8854" x2="94.5502" y2="75.8854" gradientUnits="userSpaceOnUse">
<stop stop-color="#EDEDEC"/>
<stop offset="1" stop-color="white"/>
</linearGradient>
<linearGradient id="paint3_linear_200_547" x1="962.75" y1="319.94" x2="4174.54" y2="319.94" gradientUnits="userSpaceOnUse">
<stop stop-color="#EDEDEC"/>
<stop offset="1" stop-color="white"/>
</linearGradient>
</defs>
</svg>
