<svg width="126" height="124" viewBox="0 0 126 124" fill="none" xmlns="http://www.w3.org/2000/svg">
<mask id="mask0_197_370" style="mask-type:luminance" maskUnits="userSpaceOnUse" x="1" y="0" width="124" height="124">
<path d="M1.23529 0H124.765V124H1.23529V0Z" fill="white"/>
</mask>
<g mask="url(#mask0_197_370)">
<path d="M67.4118 16.238H55.6471V29.5238H67.4118V16.238ZM67.4118 32.4761H55.6471V44.2857H67.4118V32.4761ZM67.4118 48.7142H55.6471V61.9999H67.4118V48.7142ZM52.7059 32.4761H39.4706V44.2857H52.7059V32.4761ZM52.7059 48.7142H39.4706V61.9999H52.7059V48.7142ZM36.5294 32.4761H23.2941V44.2857H36.5294V32.4761ZM36.5294 48.7142H23.2941V61.9999H36.5294V48.7142ZM21.8235 48.7142H8.58823V61.9999H21.8235V48.7142ZM83.5882 48.7142H70.3529V61.9999H83.5882V48.7142Z" fill="#009DDB"/>
<path d="M43.0544 107.762C-4.05 107.762 1.43088 66.6721 1.43088 66.6721H80.0765C93.3382 66.6721 97.7235 62.5092 97.7235 62.5092C97.7235 62.5092 90.2338 52.911 99.0029 41.3333C108.869 46.9443 108.503 55.2729 108.503 55.2729C108.503 55.2729 118.553 52.0135 124.765 57.626C121.29 68.8406 105.943 68.1173 105.943 68.1173C105.943 68.1173 91.6912 107.762 43.0544 107.762Z" fill="#009DDB"/>
</g>
</svg>
