<svg width="64" height="95" viewBox="0 0 64 95" fill="none" xmlns="http://www.w3.org/2000/svg">
<g clip-path="url(#clip0_403_528)">
<mask id="mask0_403_528" style="mask-type:luminance" maskUnits="userSpaceOnUse" x="0" y="0" width="64" height="95">
<path d="M0.554688 0H63.4442V95H0.554688V0Z" fill="white"/>
</mask>
<g mask="url(#mask0_403_528)">
<path d="M16.2808 94.9999C24.9579 94.9999 32.0001 87.9066 32.0001 79.1666V63.3333H16.2808C7.60377 63.3333 0.561523 70.4266 0.561523 79.1666C0.561523 87.9066 7.60377 94.9999 16.2808 94.9999Z" fill="#0ACF83"/>
<path d="M0.561523 47.5001C0.561523 38.7601 7.60377 31.6667 16.2808 31.6667H32.0001V63.3334H16.2808C7.60377 63.3334 0.561523 56.2401 0.561523 47.5001Z" fill="#A259FF"/>
<path d="M0.561523 15.8333C0.561523 7.09333 7.60377 0 16.2808 0H32.0001V31.6667H16.2808C7.60377 31.6667 0.561523 24.5733 0.561523 15.8333Z" fill="#F24E1E"/>
<path d="M32 0H47.7193C56.3964 0 63.4386 7.09333 63.4386 15.8333C63.4386 24.5733 56.3964 31.6667 47.7193 31.6667H32V0Z" fill="#FF7262"/>
<path d="M63.4386 47.5001C63.4386 56.2401 56.3964 63.3334 47.7193 63.3334C39.0422 63.3334 32 56.2401 32 47.5001C32 38.7601 39.0422 31.6667 47.7193 31.6667C56.3964 31.6667 63.4386 38.7601 63.4386 47.5001Z" fill="#1ABCFE"/>
</g>
</g>
<defs>
<clipPath id="clip0_403_528">
<rect width="64" height="95" fill="white"/>
</clipPath>
</defs>
</svg>
