<svg width="126" height="125" viewBox="0 0 126 125" fill="none" xmlns="http://www.w3.org/2000/svg">
<g clip-path="url(#clip0_187_282)">
<mask id="mask0_187_282" style="mask-type:luminance" maskUnits="userSpaceOnUse" x="1" y="0" width="125" height="125">
<path d="M1.521 0H125.05V125H1.521V0Z" fill="white"/>
</mask>
<g mask="url(#mask0_187_282)">
<path d="M83.6726 38.701L94.4108 27.6236L95.1255 22.9599C75.5593 4.60426 44.4534 6.68461 26.8152 27.3022C21.9152 33.0284 18.2799 40.1668 16.3417 47.5403L20.1873 46.9807L41.6623 43.3275L43.3211 41.5775C52.874 30.7546 69.027 29.2977 80.0564 38.5075L83.6726 38.701Z" fill="#EA4335"/>
<path d="M109.709 47.2129C107.242 37.8379 102.174 29.4079 95.1284 22.96L80.0578 38.5076C86.421 43.8722 90.046 51.9525 89.8916 60.4287V63.1891C97.299 63.1891 103.303 69.3841 103.303 77.0254C103.303 84.6683 97.299 90.7085 89.8916 90.7085H63.0284L60.3887 93.6609V110.258L63.0269 112.862H89.8901C109.158 113.017 124.899 97.1832 125.049 77.3067C125.14 65.2576 119.381 53.9629 109.708 47.2114L109.709 47.2129Z" fill="#4285F4"/>
<path d="M36.2019 112.863H63.0284V90.7084H36.2019C34.2901 90.7084 32.4401 90.2843 30.7019 89.4644L26.896 90.6697L16.0828 101.747L15.1416 105.518C21.2048 110.241 28.6034 112.897 36.2019 112.863Z" fill="#34A853"/>
<path d="M36.2003 40.9941C16.9327 41.1132 1.40619 57.323 1.5209 77.1995C1.5856 88.3007 6.6106 98.7501 15.1385 105.518L30.7018 89.4644C23.9518 86.317 20.9518 78.1206 24.0003 71.1563C27.0503 64.192 34.9959 61.0968 41.7459 64.2426C44.7366 65.6454 47.1192 68.1035 48.4474 71.1563L64.0062 55.1028C57.3856 46.1742 47.0974 40.9539 36.2003 40.9941Z" fill="#FBBC05"/>
</g>
</g>
<defs>
<clipPath id="clip0_187_282">
<rect width="125" height="125" fill="white" transform="translate(0.785645)"/>
</clipPath>
</defs>
</svg>
