<svg width="126" height="125" viewBox="0 0 126 125" fill="none" xmlns="http://www.w3.org/2000/svg">
<path d="M17.5318 112.5L7.51099 0H117.631L107.595 112.485L62.5037 125L17.5318 112.5Z" fill="#E44D26"/>
<path d="M61.0829 116.072L98.4235 105.881L107.214 8.92822H61.0829V116.072Z" fill="#F16529"/>
<path d="M61.0828 50.2134H43.8058L42.6224 36.1114H61.0828V22.3218H28.3453L28.6683 26.0218L31.8651 63.9884H61.0839L61.0828 50.2134ZM61.0828 86.6926L61.0245 86.7072L45.9172 82.5353L44.9505 71.428H31.3214L33.2245 93.2812L61.0245 101.191L61.0828 101.175V86.6926Z" fill="#EBEBEB"/>
<path d="M61.0828 50.5947V64.4957H79.2203L77.5057 82.5364L61.0818 86.7187V101.189L91.2745 93.2864L91.4964 90.9322L94.9589 54.328L95.3078 50.5937H61.0839L61.0828 50.5947ZM61.0828 22.3218V37.202H95.5214L95.813 33.8509L96.4589 26.3145L96.7974 22.3218H61.0828Z" fill="white"/>
</svg>
