<svg width="96" height="95" viewBox="0 0 96 95" fill="none" xmlns="http://www.w3.org/2000/svg">
<path d="M47.9548 95L13.7706 85.5L6.15479 0H89.845L82.2284 85.4889" fill="#484747"/>
<path d="M75.4748 80.4698L81.9285 6.7854H48V88.2154" fill="#484747"/>
<path d="M50.2617 16.9646V28.2736L73.1409 27.7131L74.0117 16.9646M70.0423 38.452H50.2617V48.8545L63.7493 47.99L62.5294 61.9273L50.2617 64.9673V75.7736L69.9853 70.3981L70.1452 68.6375L72.6303 41.2458L72.8812 38.452" fill="#484747"/>
<path d="M58.4057 44.1069H50.2618V22.6187H59.3098M45.7383 65.0354L32.4367 61.248L32.0155 55.4665L25.3813 54.2853L26.823 70.5058L45.7383 75.7743" fill="#484747"/>
<path d="M45.7374 16.9646H36.6902L38.5751 71.25H45.7374" fill="#484747"/>
<path d="M47.9548 95L13.7706 85.5L6.15479 0H89.845L82.2284 85.4889" fill="#EE7C22"/>
<path d="M75.4748 80.4698L81.9285 6.7854H48V88.2154" fill="#F49C25"/>
<path d="M50.2617 16.9646V28.2736L73.1409 27.7131L74.0117 16.9646M70.0423 38.452H50.2617V48.8545L63.7493 47.99L62.5294 61.9273L50.2617 64.9673V75.7736L69.9853 70.3981L70.1452 68.6375L72.6303 41.2458L72.8812 38.452" fill="white"/>
<path d="M58.4056 44.1069H50.2617V22.6187H59.3097" fill="white"/>
<path d="M45.7383 65.0354L32.4367 61.2481L32.0155 55.4666L25.3813 54.2854L26.823 70.5059L45.7383 75.7744" fill="#F0F0F0"/>
<path d="M45.7374 16.9646H36.6902L38.5751 71.25H45.7374" fill="#F0F0F0"/>
</svg>
