<svg width="126" height="124" viewBox="0 0 126 124" fill="none" xmlns="http://www.w3.org/2000/svg">
<mask id="mask0_199_501" style="mask-type:luminance" maskUnits="userSpaceOnUse" x="1" y="0" width="125" height="124">
<path d="M1.66388 0H125.193V124H1.66388V0Z" fill="white"/>
</mask>
<g mask="url(#mask0_199_501)">
<path d="M62.8168 22.9769C57.1095 27.0069 50.6404 31.5743 47.1742 39.1294C41.1536 52.3133 59.4933 66.6943 60.2771 67.2995C60.4596 67.4416 60.6851 67.5167 60.916 67.5124C61.1469 67.508 61.3694 67.4245 61.5465 67.2757C61.7236 67.1269 61.8447 66.9218 61.8896 66.6943C61.9345 66.4669 61.9005 66.2309 61.7933 66.0256C61.7271 65.8972 55.1433 53.0617 55.3889 43.8532C55.4757 40.6454 59.9477 37.0066 64.6801 33.1553C69.0154 29.6272 73.9301 25.6282 76.8065 20.9501C83.1183 10.6537 76.1021 0.528494 76.0301 0.428114C75.8937 0.240021 75.6974 0.104434 75.4736 0.0438936C75.2499 -0.0166468 75.0123 0.00150707 74.8002 0.0953371C74.5882 0.189167 74.4145 0.35302 74.3081 0.559655C74.2017 0.76629 74.169 1.00326 74.2154 1.23116C74.2301 1.29759 75.5948 7.99211 71.7977 14.8918C70.233 17.7409 66.7977 20.1677 62.8168 22.9784V22.9769Z" fill="#DB380E"/>
<path d="M86.8653 27.5162C87.0582 27.3682 87.1917 27.1555 87.2416 26.917C87.2914 26.6784 87.2542 26.4298 87.1368 26.2165C87.0194 26.0031 86.8296 25.8392 86.6019 25.7545C86.3742 25.6698 86.1238 25.6701 85.8962 25.7551C84.9256 26.1242 62.1521 34.937 62.1521 45.5848C62.1521 52.9259 65.2756 56.8039 67.5565 59.6352C68.4506 60.7453 69.2227 61.7048 69.4771 62.5226C70.1947 64.883 68.4962 69.1478 67.783 70.5915C67.6833 70.7936 67.6533 71.0232 67.6978 71.2443C67.7423 71.4654 67.8588 71.6653 68.0288 71.8127C68.1989 71.9601 68.4129 72.0466 68.6373 72.0585C68.8617 72.0705 69.0836 72.0072 69.2683 71.8787C69.6595 71.6056 78.8389 65.0912 77.1918 57.2423C76.5786 54.2604 75.1183 52.08 73.83 50.1566C71.833 47.1747 70.3918 45.0238 72.58 41.0485C75.1418 36.4103 86.7477 27.6048 86.8653 27.5162Z" fill="#DB380E"/>
<path d="M27.5801 72.2301C27.1904 73.4037 27.3742 74.5669 28.1124 75.5958C30.5816 79.0368 39.3272 80.9322 52.7389 80.9322C54.558 80.9322 56.4757 80.8968 58.4419 80.8259C79.883 80.0554 87.8374 73.349 88.1654 73.0641C88.3375 72.9129 88.4536 72.7076 88.4948 72.4817C88.5359 72.2557 88.4996 72.0225 88.3919 71.8199C88.2841 71.6173 88.1113 71.4572 87.9014 71.3658C87.6915 71.2744 87.457 71.2569 87.236 71.3163C79.6845 73.386 65.583 74.1211 55.8022 74.1211C44.8566 74.1211 39.283 73.3284 37.9198 72.7453C38.6183 71.7799 42.9374 70.0557 48.2889 68.9987C48.5372 68.9516 48.7589 68.8129 48.9104 68.61C49.062 68.4071 49.1324 68.1546 49.1079 67.9022C49.0834 67.6498 48.9657 67.4157 48.7779 67.246C48.5902 67.0763 48.346 66.9833 48.0933 66.9852C44.9566 66.9852 29.2257 67.2391 27.5801 72.2301ZM99.333 65.323C94.9095 65.323 90.7154 67.5476 90.5389 67.6421C90.3414 67.75 90.1851 67.9208 90.0948 68.1276C90.0045 68.3344 89.9851 68.5654 90.0399 68.7844C90.0946 69.0035 90.2202 69.198 90.3971 69.3375C90.5739 69.477 90.7919 69.5536 91.0169 69.5552C91.111 69.5552 100.451 69.632 101.296 74.9876C102.046 79.611 92.458 87.0983 88.7022 89.5945C88.5053 89.7249 88.36 89.9202 88.2914 90.1467C88.2228 90.3733 88.2351 90.6167 88.3263 90.835C88.4176 91.0534 88.5819 91.2329 88.791 91.3425C89 91.4521 89.2406 91.4849 89.4713 91.4353C90.3624 91.2434 111.283 86.6156 109.071 74.3898C107.723 66.8966 103.03 65.323 99.333 65.323ZM84.986 88.0991C85.0216 87.9071 85.0014 87.7088 84.9279 87.528C84.8543 87.3471 84.7306 87.1913 84.5713 87.0791L79.5551 83.551C79.434 83.4665 79.296 83.4095 79.1507 83.384C79.0055 83.3585 78.8564 83.3651 78.7139 83.4034C78.6624 83.4152 73.4169 84.7999 65.8007 85.6487C62.5488 86.0011 59.2802 86.1745 56.0095 86.1683C48.3948 86.1683 43.4169 85.2708 42.6919 84.6124C42.5963 84.4279 42.6257 84.3437 42.6433 84.2965C42.7757 83.9274 43.4816 83.492 43.936 83.3192C44.181 83.2316 44.3831 83.0526 44.5001 82.8194C44.6171 82.5862 44.6402 82.3167 44.5645 82.0669C44.4888 81.8171 44.3202 81.6061 44.0936 81.4779C43.867 81.3496 43.5999 81.3138 43.3477 81.378C38.3154 82.5959 35.8551 84.3009 36.033 86.4429C36.3522 90.2426 45.1169 92.1926 52.5286 92.7078C53.5933 92.7816 54.7463 92.8185 55.9522 92.8185H55.9551C68.2786 92.8185 84.0742 88.9361 84.233 88.8978C84.4219 88.8513 84.5935 88.7511 84.727 88.6092C84.8606 88.4672 84.9505 88.2911 84.986 88.0991ZM47.1683 96.2507C47.3535 96.1301 47.4944 95.9521 47.5694 95.7437C47.6445 95.5353 47.6495 95.308 47.5839 95.0965C47.5183 94.8849 47.3855 94.7007 47.2059 94.572C47.0262 94.4432 46.8096 94.3769 46.5889 94.3833C45.9139 94.401 39.9904 94.6697 39.5742 98.4561C39.4492 99.5869 39.7727 100.622 40.5345 101.528C42.6624 104.058 48.4036 105.562 58.086 106.126C59.2301 106.196 60.3948 106.23 61.5433 106.23C73.8521 106.23 82.1419 102.362 82.4889 102.197C82.6539 102.118 82.7946 101.997 82.8964 101.844C82.9981 101.692 83.0569 101.515 83.0667 101.332C83.0765 101.149 83.0369 100.967 82.952 100.805C82.8671 100.643 82.7401 100.506 82.5845 100.411L76.2448 96.5252C76.0247 96.3906 75.762 96.3447 75.5095 96.3968C75.4698 96.4057 71.4448 97.2441 65.3713 98.0723C64.2213 98.2288 62.783 98.3085 61.0919 98.3085C55.0257 98.3085 48.2757 97.3135 46.9816 96.6611C46.9624 96.54 46.986 96.385 47.1683 96.2507Z" fill="#73A1FB"/>
<path d="M55.8065 117.909C84.0007 117.886 99.1315 112.853 102.046 109.687C103.079 108.565 103.19 107.505 103.102 106.811C102.886 105.106 101.337 104.063 101.162 103.951C100.957 103.817 100.711 103.762 100.469 103.795C100.227 103.828 100.004 103.947 99.8418 104.131C99.6814 104.313 99.5923 104.548 99.5912 104.791C99.5901 105.034 99.6771 105.27 99.836 105.453C100.012 105.682 100.115 106.067 99.5963 106.59C98.4315 107.682 86.6771 110.998 67.108 111.994C64.4271 112.135 61.6154 112.205 58.7507 112.205C41.2301 112.205 28.4065 109.796 26.7227 108.392C27.3712 107.456 31.908 105.961 36.7315 105.115C36.9968 105.074 37.2348 104.929 37.3934 104.712C37.552 104.494 37.6181 104.223 37.5771 103.956C37.5362 103.69 37.3915 103.451 37.175 103.292C36.9586 103.133 36.6879 103.066 36.4227 103.108C36.2859 103.125 35.8242 103.153 35.2904 103.186C27.3301 103.673 18.133 104.761 17.6536 108.878C17.5065 110.133 17.8786 111.269 18.7565 112.261C20.9065 114.687 27.0845 117.909 55.8065 117.909Z" fill="#73A1FB"/>
<path d="M107.584 110.579C107.391 110.489 107.174 110.462 106.964 110.504C106.755 110.545 106.564 110.652 106.418 110.809C106.377 110.853 102.139 115.304 89.3933 117.915C84.5139 118.897 75.3551 119.394 62.1727 119.394C53.5359 119.377 44.9002 119.201 36.2698 118.867C36.0188 118.858 35.7732 118.942 35.5806 119.104C35.3881 119.266 35.2623 119.494 35.2276 119.744C35.193 119.993 35.252 120.247 35.3932 120.456C35.5344 120.664 35.7478 120.812 35.9918 120.872C36.1242 120.903 49.2948 124.002 67.3036 124.002C75.9418 124.002 84.3477 123.297 92.2874 121.907C107.092 119.301 108.129 111.934 108.165 111.621C108.19 111.408 108.148 111.192 108.043 111.005C107.939 110.818 107.778 110.669 107.584 110.579Z" fill="#73A1FB"/>
</g>
</svg>
