<svg width="94" height="125" viewBox="0 0 94 125" fill="none" xmlns="http://www.w3.org/2000/svg">
<g clip-path="url(#clip0_199_451)">
<path d="M91.8634 60.2336C91.8634 85 71.7802 105.076 47.003 105.076C22.2273 105.076 2.14261 85 2.14261 60.2336C2.14261 35.4687 22.2258 15.3928 47.003 15.3928C71.7787 15.3928 91.8634 35.4672 91.8634 60.2336Z" fill="#D33833"/>
<path d="M3.96889 71.3408C3.96889 71.3408 0.722158 24.5774 44.8141 23.2441L41.739 18.2336L17.8137 26.0819L10.9771 33.7649L4.99394 44.9554L1.57711 57.9822L2.60216 66.6667" fill="#EF3D3A"/>
<path d="M16.2754 29.6429C12.227 33.6818 9.01753 38.4778 6.83097 43.756C4.64441 49.0342 3.52375 54.6909 3.5332 60.4019C3.52368 66.1122 4.64433 71.7682 6.83091 77.0457C9.01749 82.3232 12.227 87.1184 16.2754 91.1563C24.1505 99.0254 35.0008 103.881 47 103.881C58.9992 103.881 69.8524 99.0254 77.7261 91.1578C81.7742 87.1194 84.9835 82.3239 87.1701 77.0462C89.3566 71.7685 90.4774 66.1123 90.4683 60.4019C90.4683 48.381 85.5967 37.515 77.7261 29.6429C69.8524 21.7769 58.9992 16.9212 47 16.9197C35.0023 16.9212 24.1505 21.7769 16.2754 29.6429ZM14.2835 93.0611C9.98418 88.7729 6.57538 83.6808 4.25239 78.0766C1.92939 72.4724 0.737857 66.4661 0.746029 60.4019C0.746029 47.6548 5.91752 36.1013 14.282 27.7412C22.645 19.3781 34.222 14.1965 47 14.198C59.778 14.1965 71.3549 19.3795 79.7165 27.7412C84.0163 32.0294 87.4253 37.1216 89.7483 42.7262C92.0714 48.3307 93.2627 54.3373 93.254 60.4019C93.2623 66.4659 92.0709 72.472 89.7479 78.076C87.4249 83.68 84.016 88.7718 79.7165 93.0596C71.3549 101.423 59.778 106.604 47 106.604C34.222 106.604 22.645 101.424 14.2835 93.0611Z" fill="#231F20"/>
<path d="M65.8865 60.4836L59.0499 61.4851L49.8215 62.4865L43.8398 62.6532L38.0282 62.4865L33.5863 61.1502L29.6548 56.9761L26.5796 48.4583L25.8948 46.6205L21.7931 45.2857L19.4013 41.4434L17.6914 35.933L19.5714 31.0892L24.0162 29.5862L27.6047 31.2559L29.3131 34.9315L31.3632 34.5967L32.048 33.7618L31.3632 29.9196L31.1931 25.0758L32.2181 18.3973L32.1793 14.5803L35.2948 9.71274L40.7632 5.87048L50.3333 1.86304L60.9299 3.36601L70.1583 9.87941L74.4301 16.561L77.165 21.4032L77.8484 33.427L75.7983 43.7827L72.0383 52.9672L68.4499 57.811" fill="#F0D6B7"/>
<path d="M60.072 89.3749L35.6335 90.3764V94.3854L37.6835 108.414L36.6585 109.583L19.5684 103.905L18.3733 101.9L16.6634 83.0282L12.7333 71.6726L11.8783 68.9999L25.5501 59.8154L29.8234 58.1443L33.5834 62.6532L36.8301 65.4925L40.5901 66.6621L42.2985 67.1636L44.3501 75.8482L45.8869 77.6845L49.8185 76.3482L47.0835 81.5267L61.952 88.3735L60.072 89.3749Z" fill="#335061"/>
<path d="M19.5699 31.0892L24.0133 29.5862L27.6032 31.2558L29.3116 34.9314L31.3617 34.5966L31.8749 32.5922L30.8499 28.7514L31.8749 19.5654L31.02 14.555L34.0966 11.0475L40.7617 5.87043L38.8817 3.36597L29.4817 7.8749L25.5516 10.8808L23.3299 15.5564L19.9131 20.0654L18.8865 25.4106L19.5699 31.0892Z" fill="#6D6B6D"/>
<path d="M26.5781 15.3913C26.5781 15.3913 29.1415 9.21276 39.3949 6.20532C49.6484 3.19937 39.9082 4.03419 39.9082 4.03419L28.7968 8.21127L24.525 12.3854L22.645 15.7262L26.5751 15.3913H26.5781ZM21.4499 29.9211C21.4499 29.9211 17.8615 18.2306 31.5333 16.5595L31.02 14.5565L21.62 16.7276L18.8865 25.4122L19.5699 31.0893L21.4499 29.9211Z" fill="#DCD9D8"/>
<path d="M26.9198 45.4523L29.1579 43.3332C29.1579 43.3332 30.1665 43.4493 30.3366 44.6175C30.5082 45.7871 31.0215 56.3079 38.3699 61.9865C39.0413 62.5058 32.9015 61.1517 32.9015 61.1517L27.4316 52.802L26.9198 45.4523ZM58.3665 42.2797C58.3665 42.2797 58.7649 37.2172 60.16 37.607C61.5551 37.9954 61.5551 39.36 61.5551 39.36C61.5551 39.36 58.1681 41.5014 58.3665 42.2797ZM72.5501 23.7425C72.5501 23.7425 69.7331 24.3228 69.4735 26.7484C69.2153 29.174 72.5501 27.2484 73.0634 27.0817L72.5501 23.7425ZM51.8701 23.9091C51.8701 23.9091 48.1116 24.4106 48.1116 26.7484C48.1116 29.0847 52.3849 28.9195 53.5815 27.9166L51.8701 23.9091ZM28.6282 34.7648C28.6282 34.7648 22.1348 30.9225 21.4514 34.5966C20.7665 38.2722 19.2282 40.9433 22.4764 44.7856L20.2533 44.116L18.2032 38.9389L17.5198 33.9285L21.4514 29.921L25.8933 30.2544L28.4581 32.2588L28.6282 34.7648ZM31.7049 24.2439C31.7049 24.2439 34.6099 9.54602 49.3082 6.70674C61.4089 4.37043 67.765 7.20822 70.1583 9.87936C70.1583 9.87936 59.3901 -2.64594 49.1366 1.19483C38.8832 5.03561 31.3632 12.0505 31.5333 16.5594C31.8242 24.2395 31.7049 24.2439 31.7049 24.2439ZM71.3535 11.5505C71.3535 11.5505 66.3998 11.3823 66.2267 15.7261C66.2267 15.7261 66.2267 16.3927 66.5699 17.0609C66.5699 17.0609 70.5 12.7186 72.8918 15.0564" fill="#F7E4CD"/>
<path d="M49.6529 17.5133C49.6529 17.5133 48.7994 10.8467 42.9849 14.7231C39.2249 17.2276 39.568 20.735 40.2499 21.4032C40.9348 22.0728 40.7483 23.4166 41.269 22.494C41.7882 21.5699 41.6166 18.5639 43.4981 17.7291C45.3781 16.8943 48.4592 15.9612 49.6529 17.5133Z" fill="#F7E4CD"/>
<path d="M33.5819 62.6534L17.5183 69.6683C17.5183 69.6683 24.1834 95.5537 20.765 103.572L18.3733 102.737L18.2017 92.8825L13.7583 74.1772L11.8783 68.9986L28.6267 57.9778L33.5819 62.6534ZM35.2336 76.9718L37.5135 79.6876V89.7084H34.7785C34.7785 89.7084 34.4368 82.695 34.4368 81.8602C34.4368 81.0239 34.78 78.018 34.78 78.018L35.2336 76.9718ZM35.2918 91.2129L27.6017 91.5462L29.8234 93.0492L35.2918 93.884" fill="#49728B"/>
<path d="M61.6118 89.5432L67.9351 89.375L69.4735 104.741L62.98 105.574L61.6118 89.5432Z" fill="#335061"/>
<path d="M63.3202 89.5417L72.8888 89.0402C72.8888 89.0402 76.8204 79.3527 76.8204 78.8527C76.8204 78.3527 80.2372 64.8244 80.2372 64.8244L72.5486 56.9747L71.0103 55.6399L66.9071 59.6473V75.1801L63.3202 89.5417Z" fill="#335061"/>
<path d="M67.5935 88.3721L61.6118 89.5417L62.4667 94.2188C64.6884 95.2203 68.4484 92.5477 68.4484 92.5477L67.5935 88.3721ZM67.7651 59.1459L79.7284 67.8319L80.0686 63.823L71.0118 55.6384L67.7651 59.1459Z" fill="#49728B"/>
<path d="M41.2227 122.445L37.6865 108.412L35.9259 98.0611L35.6349 90.3766L51.6478 89.5432L61.6118 89.5417L60.7061 107.079L62.2429 120.606L62.0728 123.112L49.0844 124.115L41.2227 122.445Z" fill="white"/>
<path d="M59.3931 89.375C59.3931 89.375 58.5381 106.744 61.1015 119.103C61.1015 119.103 55.9733 122.277 48.4548 123.112L62.8099 122.61L64.5198 121.609L62.4682 94.2188L61.9564 88.3735" fill="#DCD9D8"/>
<path d="M69.7644 103.408L76.4295 101.57L89.0762 100.902L90.9562 95.2233L87.5394 85.3706L83.6078 84.8691L78.1394 86.5388L72.8918 89.0432L70.1061 88.5432L67.9352 89.3766" fill="white"/>
<path d="M69.6436 100.062C69.6436 100.062 74.0854 98.0595 74.7703 98.2261L72.8903 89.0401L75.112 88.2068C75.112 88.2068 76.6488 96.8898 76.6488 97.8928C76.6488 97.8928 86.2204 98.3928 87.0753 98.3928C87.0753 98.3928 89.1254 94.5535 88.6122 90.5431L90.4922 95.8883L90.6637 98.8943L87.9288 102.903L84.8537 103.571L79.7269 103.403L78.017 101.232L72.0368 102.067L70.1568 102.737" fill="#DCD9D8"/>
<path d="M62.9293 88.2068L59.1693 78.8556L55.2392 73.3437C55.2392 73.3437 56.0926 71.0059 57.2893 71.0059H61.2208L64.9808 72.3422L64.6377 78.5207L62.9293 88.2068Z" fill="white"/>
<path d="M63.6634 85.0342C63.6634 85.0342 58.8783 76.0164 58.8783 74.6801C58.8783 74.6801 59.7318 72.6771 60.9284 73.1771C62.125 73.6786 64.6884 75.0134 64.6884 75.0134V71.8408L58.8783 70.6711L54.9467 71.1726L61.6118 86.5372L62.98 86.7054" fill="#DCD9D8"/>
<path d="M42.7625 62.9911L38.0267 62.4882L33.5834 61.1519V62.6548L35.7543 64.9941L42.5909 68.0001" fill="white"/>
<path d="M35.1217 63.491C35.1217 63.491 40.4185 65.6636 42.1284 65.1606L42.2985 67.1636L37.5135 66.1636L34.6084 64.1591L35.1217 63.491Z" fill="#DCD9D8"/>
<path d="M69.7465 71.5759C66.8474 71.4926 64.2259 71.1548 61.9326 70.5239C62.0892 69.6042 61.7983 68.7024 62.0311 68.0387C62.6711 67.5893 63.7424 67.5968 64.7093 67.4911C63.8737 67.0893 62.6995 66.9316 61.7341 67.1637C61.7117 66.5254 61.4193 66.1295 61.2417 65.631C62.8726 65.0626 66.7206 61.3349 68.8856 62.5685C69.9181 63.1563 70.3568 66.509 70.4373 68.1399C70.503 69.4941 70.3105 70.8587 69.7465 71.5759Z" fill="#D33833"/>
<path d="M69.7465 71.5759C66.8474 71.4926 64.2259 71.1548 61.9326 70.5239C62.0892 69.6042 61.7983 68.7024 62.0311 68.0387C62.6711 67.5893 63.7424 67.5968 64.7093 67.4911C63.8737 67.0893 62.6995 66.9316 61.7341 67.1637C61.7117 66.5254 61.4193 66.1295 61.2417 65.631C62.8726 65.0626 66.7206 61.3349 68.8856 62.5685C69.9181 63.1563 70.3568 66.509 70.4373 68.1399C70.503 69.4941 70.3105 70.8587 69.7465 71.5759Z" stroke="#D33833" stroke-width="6.141"/>
<path d="M55.8778 66.9435C55.8703 67.1578 55.8629 67.3736 55.8524 67.5894C54.9482 68.1697 53.486 68.1638 52.4923 68.6519C53.7472 68.6909 54.9794 68.9953 56.1076 69.5447L56.0434 71.1668C54.3842 72.2754 52.8683 73.9302 50.9137 74.9703C49.9886 75.4629 46.7463 76.7307 45.7646 76.506C45.208 76.3796 45.1573 75.7055 44.935 75.07C44.462 73.7084 43.3713 71.5433 43.2758 69.4927C43.1564 66.9034 42.8879 62.5671 45.7422 63.0998C48.0444 63.5284 50.7227 64.5656 52.5057 65.518C53.5949 66.0983 54.2261 66.8185 55.8778 66.9435Z" fill="#D33833"/>
<path d="M55.8778 66.9435C55.8703 67.1578 55.8629 67.3736 55.8524 67.5894C54.9482 68.1697 53.486 68.1638 52.4923 68.6519C53.7472 68.6909 54.9794 68.9953 56.1076 69.5447L56.0434 71.1668C54.3842 72.2754 52.8683 73.9302 50.9137 74.9703C49.9886 75.4629 46.7463 76.7307 45.7646 76.506C45.208 76.3796 45.1573 75.7055 44.935 75.07C44.462 73.7084 43.3713 71.5433 43.2758 69.4927C43.1564 66.9034 42.8879 62.5671 45.7422 63.0998C48.0444 63.5284 50.7227 64.5656 52.5057 65.518C53.5949 66.0983 54.2261 66.8185 55.8778 66.9435Z" stroke="#D33833" stroke-width="6.141"/>
<path d="M57.5295 70.0297C57.2758 68.6204 56.9834 68.2187 57.0968 66.988C60.9463 64.482 61.667 71.2931 57.5295 70.0297Z" fill="#D33833"/>
<path d="M57.5295 70.0297C57.2758 68.6204 56.9834 68.2187 57.0968 66.988C60.9463 64.482 61.667 71.2931 57.5295 70.0297Z" stroke="#D33833" stroke-width="6.141"/>
<path d="M63.0979 71.1727C63.0979 71.1727 61.9012 69.503 62.7562 69.0016C63.6111 68.5016 64.4661 69.0016 64.9794 68.1682C65.4911 67.3334 64.9794 66.8319 65.1495 65.8289C65.321 64.8274 66.176 64.6608 67.0295 64.4926C67.8829 64.3274 70.2762 63.9926 70.6179 64.8274L69.5928 61.8215L67.5412 61.1519L61.0478 64.8274L60.7061 66.6638V70.3394L63.0979 71.1727ZM45.1528 76.6846C44.9484 74.0789 44.7306 71.4763 44.4888 68.8721C44.1278 64.9837 45.4438 65.6623 48.8934 65.6623C49.4201 65.6623 52.1372 66.2769 52.3311 66.6638C53.2637 68.5239 50.7719 68.1117 53.4054 69.5135C55.6271 70.698 59.5527 68.7947 58.6545 66.1638C58.1532 65.5775 56.0374 65.9807 55.2795 65.5983L51.2733 63.5685C49.5753 62.7054 45.6482 61.451 43.8383 62.6548C39.2487 65.7054 44.1278 73.3245 45.7646 76.506" fill="#EF3D3A"/>
<path d="M49.6514 17.5134C44.9932 16.4524 42.679 19.4182 41.266 22.4941C40.0052 22.195 40.508 20.5194 40.8258 19.6667C41.6614 17.4256 45.02 14.4435 47.7654 14.8468C48.9471 15.0209 50.5451 16.0759 49.6514 17.5134ZM72.3457 22.6965L72.568 22.7054C73.6199 24.8423 74.5316 27.1057 75.858 28.9926C74.9702 31.0164 69.1228 32.8081 69.2138 29.1727C70.4776 28.6325 72.6605 29.0625 73.7796 28.3736C73.1335 26.6355 72.1965 25.1548 72.3457 22.6965ZM52.0357 22.753C53.0354 24.5417 53.3607 26.4212 54.7796 27.7738C55.4182 28.384 56.6626 29.125 56.0464 30.817C55.9016 31.2173 54.8497 32.1072 54.241 32.2813C52.0223 32.9212 46.8493 32.4152 48.601 29.7099C50.4362 29.7932 52.9041 30.875 54.2753 29.573C53.2234 27.9271 51.3434 24.6712 52.0357 22.753ZM71.5146 40.9375C68.1724 43.0358 64.4467 45.3155 58.9708 44.7872C57.801 43.7932 57.3549 41.5804 58.4919 40.1191C59.0842 41.1131 58.7112 42.942 60.3599 43.2173C63.4679 43.7366 67.0832 41.3602 69.3198 40.5283C70.7044 38.2456 69.2004 37.4063 67.9515 35.9361C65.3956 32.9256 61.9669 29.1935 62.0907 24.6861C63.1247 23.9539 63.2128 25.8036 63.362 26.1399C64.6959 29.192 68.0545 33.0968 70.506 35.7084C71.1073 36.3512 72.0995 36.9688 72.2099 37.3944C72.5277 38.6325 71.3818 40.1146 71.5146 40.9375ZM27.4599 38.7277C26.4125 38.1444 26.1618 35.57 24.9324 35.4986C23.1762 35.3944 23.497 38.8349 23.503 40.8483C22.2944 39.7768 22.081 36.4718 22.9688 34.7753C21.9557 34.2887 21.5036 35.3111 20.9426 35.6712C21.6648 30.5462 28.6148 33.2932 27.4599 38.7277ZM73.6423 43.0715C72.0876 45.9643 69.8868 49.1518 65.3225 49.2441C65.23 48.3096 65.1584 46.8869 65.327 46.3244C68.8169 45.9971 70.9715 44.2619 73.6423 43.0715ZM51.7746 44.9465C54.6841 46.4435 60.0362 46.6042 63.9946 46.4911C64.205 47.3393 64.2005 48.384 64.208 49.4182C59.1215 49.6652 53.107 48.4361 51.7746 44.9465ZM51.221 47.7366C53.2353 52.6771 60.154 52.1072 65.988 51.9718C65.7314 52.6116 65.1748 53.3706 64.4825 53.6444C62.6129 54.3884 57.4549 54.9524 54.8587 53.6042C53.2129 52.75 52.1566 50.817 51.2539 49.6846C50.8182 49.1369 48.6487 47.7411 51.221 47.7366Z" fill="#231F20"/>
<path d="M71.2729 74.9837C68.911 78.9376 66.6505 82.9986 63.8469 86.4867C65.0226 83.1102 65.5255 77.4599 65.703 73.1504C68.1604 72.0268 70.2658 73.4033 71.2729 74.9837Z" fill="#81B0C4"/>
<path d="M83.9838 89.1965C81.3383 89.7129 79.4792 92.2248 76.8995 92.0641C78.3169 90.1102 80.8027 89.2873 83.9838 89.1965ZM85.1506 93.2412C82.9945 93.4644 80.4625 93.8052 78.2751 93.6281C79.3106 92.0834 83.2989 92.6162 85.1506 93.2412ZM85.8966 96.7293C83.475 96.7799 80.4625 96.7322 78.1602 96.5447C79.5225 95.1147 84.3255 96.0135 85.8966 96.7293Z" fill="#231F20"/>
<path d="M66.7131 106.272C67.0593 109.246 68.2649 112.259 68.1157 115.516C66.7758 115.957 66.0059 116.344 64.2109 116.342C64.0841 113.574 63.7036 109.342 63.8185 106.704C64.7018 106.76 66.0029 106.088 66.7131 106.272Z" fill="#DCD9D8"/>
<path d="M62.8054 62.4465C61.5879 63.2233 60.5524 64.1921 59.3841 65.0209C56.7924 65.1459 55.3794 64.8453 53.4756 63.3915C53.5054 63.2754 53.6979 63.3275 53.7053 63.1831C56.4791 64.3915 60.0048 62.6921 62.8054 62.4465Z" fill="#F0D6B7"/>
<path d="M48.2444 80.9227C49.0053 77.6965 51.9925 76.0268 54.705 74.2471C57.5026 77.7188 59.2051 82.1831 61.0791 86.4911C56.6507 85.1861 52.1267 83.067 48.2444 80.9227Z" fill="#81B0C4"/>
<path d="M63.8185 106.704C63.7066 109.342 64.0841 113.573 64.2109 116.342C66.0074 116.344 66.7773 115.958 68.1157 115.516C68.2679 112.259 67.0608 109.247 66.7131 106.272C66.0029 106.088 64.7018 106.76 63.8185 106.704ZM35.8707 91.698C37.0539 102.332 38.7683 111.271 41.9121 120.686C48.8904 122.757 57.3027 122.938 63.4724 121.07C62.3384 115.755 62.8338 109.284 62.1728 103.613C61.6729 99.3497 61.9281 95.0611 61.2432 90.7113C53.7695 89.1935 43.2042 90.3587 35.8707 91.698ZM63.0113 90.7798C62.9472 95.3468 63.2202 99.8512 63.5768 104.424C65.3718 104.161 66.5893 103.985 68.2559 103.628C67.7143 99.2262 67.7815 94.2724 66.6773 90.378C65.4046 90.3899 64.2811 90.3631 63.0113 90.7798ZM72.1129 90.0432C71.2624 89.8527 70.2702 90.0358 69.457 90.0521C69.839 93.7753 70.7671 97.8825 71.0938 101.79C72.374 101.829 73.0574 101.24 74.1108 101.04C74.1675 97.6102 73.8019 92.8855 72.1129 90.0432ZM85.8966 102.35C88.5659 101.717 90.243 98.5238 89.4969 95.2426C88.9971 93.0387 88.1049 88.8884 87.1499 87.4762C86.4442 86.4346 84.5314 85.0685 83.0035 86.0238C80.5192 87.5789 76.1415 88.0298 74.3301 89.9122C75.2403 92.8676 75.5208 96.9286 75.8968 100.674C79.0003 100.863 82.8185 99.8408 85.3997 100.927C83.5973 101.497 81.2593 101.502 79.703 102.332C80.9758 102.933 83.9554 102.81 85.8966 102.35ZM61.0821 86.4926C59.2081 82.1846 57.5056 77.7203 54.7065 74.25C51.9954 76.0268 49.0098 77.698 48.2474 80.9241C52.1282 83.0715 56.6536 85.1875 61.0821 86.4926ZM65.703 73.1533C65.524 77.4613 65.0226 83.1116 63.8469 86.4881C66.6505 83.0015 68.9109 78.939 71.2729 74.9852C70.2657 73.4048 68.1619 72.0298 65.703 73.1533ZM60.4659 71.3334C59.4035 71.2218 58.5023 72.5268 57.1207 71.9628C56.8043 72.3051 56.5179 72.6741 56.1956 73.009C59.2439 76.5997 60.63 81.695 62.9845 85.9167C64.2497 81.8616 64.1035 77.4197 64.3825 72.9956C62.6458 73.1027 61.6819 71.4599 60.4644 71.3334H60.4659ZM57.0968 66.9896C56.9834 68.2203 57.2758 68.6236 57.5295 70.0328C61.667 71.2977 60.9463 64.4822 57.0968 66.9911V66.9896ZM52.5087 65.5179C50.7257 64.5655 48.0474 63.5283 45.7452 63.0997C42.8909 62.5655 43.1579 66.9048 43.2788 69.4926C43.3743 71.5417 44.465 73.7099 44.9395 75.07C45.1618 75.7054 45.211 76.3795 45.7676 76.506C46.7508 76.7292 49.9931 75.4643 50.9167 74.9703C52.8713 73.9286 54.3872 72.2768 56.0464 71.1667L56.112 69.5447C54.9832 68.9957 53.7505 68.6913 52.4953 68.6518C53.489 68.1637 54.9512 68.1712 55.8569 67.5893L55.8822 66.9435C54.229 66.82 53.5979 66.0997 52.5087 65.5179ZM35.4813 62.4926C34.0011 63.9613 39.6292 65.9613 41.4242 66.07C41.4137 65.1414 41.9643 64.2664 41.8539 63.5997C39.7247 63.2337 36.9271 63.4747 35.4798 62.4926H35.4813ZM53.7083 63.1831C53.7009 63.3259 53.5099 63.2738 53.4785 63.3914C55.3824 64.8453 56.7969 65.1459 59.3871 65.0194C60.5554 64.192 61.5924 63.2218 62.8084 62.445C60.0078 62.6905 56.4836 64.3899 53.7083 63.1831ZM70.4388 68.1414C70.3582 66.509 69.9196 63.1563 68.8886 62.57C66.7236 61.3349 62.8755 65.0625 61.2447 65.6325C61.4223 66.131 61.7147 66.5253 61.7371 67.1637C62.701 66.9316 63.8752 67.0893 64.7108 67.4911C63.7454 67.5983 62.6726 67.5908 62.034 68.0402C61.7998 68.7024 62.0907 69.6027 61.9355 70.5238C64.2288 71.1563 66.8489 71.4911 69.7495 71.5759C70.312 70.8587 70.5045 69.4941 70.4388 68.1414ZM32.988 63.9137C32.524 63.5893 29.3802 59.5923 28.9505 59.759C23.2628 61.9509 17.945 65.7411 13.1913 69.3274C17.7227 78.8274 19.552 90.4688 19.8758 101.688C25.0652 104.061 29.6249 107.481 36.6689 107.838C35.8528 102.202 35.1083 97.1741 34.6472 91.8691C32.8761 91.1399 30.3381 91.9018 28.6819 91.6414C28.667 89.692 31.211 90.7872 31.4228 89.4762C31.5825 88.4837 30.0233 88.4093 30.5306 86.8468C31.8257 87.3081 32.5061 88.323 33.8877 88.7039C35.1485 86.006 33.8698 81.2337 34.0519 78.9792C34.0847 78.5551 34.2667 76.634 35.2366 76.9703C36.096 77.2679 35.1888 82.0834 35.2813 84.2173C35.3679 86.1816 35.0396 88.0849 35.8543 89.3185C42.8483 88.382 49.8874 87.8187 56.9416 87.631C55.3212 86.9509 53.3965 86.3081 51.2867 85.1459C50.1423 84.5164 46.536 83.2054 46.2062 82.1429C45.6795 80.4509 47.5879 79.5491 47.9146 78.0997C44.4784 79.9301 43.8085 76.3438 42.9953 73.8036C42.2597 71.503 41.8389 69.7843 41.6584 68.4569C38.6996 67.0774 35.535 65.6816 32.9895 63.9137H32.988ZM67.4308 60.2426C72.1696 57.9956 73.0246 68.6355 71.1669 72.0625C71.4534 73.0834 72.4412 73.4762 72.844 74.3944C70.2001 79.0238 67.2637 83.3453 64.5631 87.9212C66.5714 86.6994 69.4376 87.7009 71.7996 86.7887C72.665 86.4539 73.2887 84.5238 73.9422 82.9792C75.7401 78.7262 77.6276 73.3661 78.4676 69.3096C78.6571 68.3869 79.1749 66.3721 79.0585 65.5491C78.8526 64.0759 76.8069 62.9837 75.767 62.073C73.8497 60.3914 72.6441 58.9108 70.6432 57.3378C69.8345 58.506 68.0933 59.2917 67.4308 60.2426ZM22.1497 19.1742C19.8907 21.6012 20.3637 26.1533 20.6382 29.3884C24.719 26.878 30.1367 29.5864 30.086 33.8542C32.0346 33.8036 30.8141 31.4762 30.462 29.9762C29.3101 25.0789 32.4016 19.7575 30.6007 15.2783C27.1063 15.5372 24.2341 16.9316 22.1497 19.1742ZM38.3072 5.08189C33.1954 6.49856 26.6438 10.128 24.5429 14.6161C26.1693 14.3855 27.2988 13.5834 28.9028 13.4852C29.51 13.4465 30.3053 13.7322 31.0021 13.564C32.3897 13.2262 33.5625 10.1831 34.6099 9.05064C35.632 7.94499 36.8599 7.47326 37.6985 6.46433C38.2386 6.21136 39.0369 6.22772 39.0682 5.43606C38.8339 5.19201 38.5877 5.00302 38.3072 5.08189ZM64.9182 6.41374C59.6124 3.48963 50.6317 1.28874 44.9857 4.03725C40.4319 6.25749 34.2757 9.92862 32.1763 14.5804C34.1369 19.0715 31.5944 23.1846 31.4333 27.7426C31.3468 30.1682 32.6016 32.2858 32.6986 34.9256C32.0271 36.0075 29.977 36.1414 28.5581 36.067C28.0806 33.7307 27.2451 31.1057 24.7832 30.8423C21.3007 30.4703 18.7552 33.2872 18.5956 36.2292C18.4091 39.692 21.3171 45.4301 25.4382 45.0313C27.0302 44.878 27.4226 43.3185 29.1564 43.3349C30.0964 45.1667 27.7061 45.7426 27.4599 47.0551C27.3958 47.3929 27.6584 48.7158 27.8106 49.3378C28.5581 52.3587 30.2277 56.2724 31.869 58.573C33.9549 61.4926 38.0506 61.9316 42.4582 62.2188C43.2445 60.5611 46.1436 60.698 48.034 61.1325C45.769 60.2545 43.6637 58.131 41.9195 56.2515C39.9157 54.0938 37.8865 51.7783 37.785 48.9599C41.5704 54.0938 44.6992 58.5759 51.5851 60.8349C56.7954 62.5417 62.88 60.0521 66.8817 57.3036C68.5439 56.1622 69.5346 54.3497 70.7163 52.692C75.1329 46.4822 77.1949 37.6176 76.7413 29.0268C76.5548 25.4837 76.5622 21.9524 75.3462 19.5685C74.075 17.0759 69.7748 14.8453 67.2577 17.0997C66.7907 14.6771 69.3511 13.1771 72.3576 14.0492C70.2135 11.3438 67.9635 8.09528 64.9167 6.41522L64.9182 6.41374ZM74.8031 86.3616C78.9495 84.3483 86.6949 80.9405 89.2955 86.3691C90.2549 88.3706 91.3799 91.753 91.8768 93.82C92.5781 96.7337 91.1158 102.86 88.0511 103.838C85.343 104.701 82.1843 104.649 78.9227 104.009C78.5392 103.696 78.111 103.152 77.8126 102.585C75.485 102.496 73.3021 102.708 71.4639 103.641C71.6384 105.326 70.4731 105.595 69.3809 105.942C68.5708 109.079 71.0013 113.177 70.4194 116.037C70.0046 118.074 67.4383 118.388 65.5523 118.771C65.4926 119.902 65.6359 120.848 65.7642 121.807C65.333 123.359 63.3993 124.243 61.5655 124.46C55.5376 125.167 46.3838 125.487 40.5856 123.448C38.9667 119.568 37.691 114.85 36.3437 110.421C30.6888 111.012 26.1141 108.037 21.802 106.088C20.31 105.411 18.2435 105.039 17.6854 103.877C17.1453 102.752 17.3661 100.598 17.2318 98.5611C16.8902 93.3631 16.5977 88.3483 15.1937 83.0253C14.5625 80.6355 13.4629 78.5268 12.696 76.2247C11.9872 74.0923 10.7488 71.4554 10.425 69.3289C9.94758 66.1756 12.9839 66 14.9266 64.634C17.9301 62.5209 20.2876 61.3527 23.5388 59.4465C24.5027 58.881 27.4077 57.4524 27.7375 56.7932C28.394 55.4881 26.6095 53.6488 26.1335 52.625C25.3785 51.0075 24.9846 49.634 24.8772 48.0358C22.1482 47.6146 20.0802 46.0268 18.8313 44.2396C16.7648 41.2783 15.3309 35.7992 17.1184 31.6325C17.2602 31.3051 17.9585 30.6593 18.0629 30.1548C18.2658 29.1622 17.6795 27.8423 17.6436 26.7872C17.4556 21.3706 18.5807 16.7054 22.3108 15.0715C23.8268 9.17415 29.2474 7.21433 34.3548 4.28278C36.2646 3.18755 38.3684 2.48814 40.5423 1.70689C48.3399 -1.09817 60.3032 -0.569894 66.7728 4.21284C69.5182 6.24112 73.9049 10.5239 75.4715 13.6236C79.6165 21.8081 79.3211 35.4896 76.425 45.445C76.0341 46.7828 75.4701 48.7486 74.6793 50.3542C74.1302 51.4747 72.4203 53.7173 72.6277 54.7084C72.841 55.7322 76.5264 58.4658 77.3157 59.2099C78.7392 60.5521 81.4428 62.3319 81.6606 64.0253C81.8964 65.8259 80.8489 68.2902 80.3178 70.0283C78.5452 75.8289 76.8144 81.1905 74.8031 86.3616Z" fill="#231F20"/>
<path d="M47.1417 46.2099C47.367 45.9167 48.604 45.4733 50.3348 46.2873C50.3348 46.2873 48.2832 46.6206 48.4548 49.9629L47.5998 49.7947C47.5998 49.7947 46.7165 46.7664 47.1417 46.2099Z" fill="#F7E4CD"/>
<path d="M62.1236 74.9286C62.1236 75.0498 62.0994 75.1697 62.0522 75.2814C62.0051 75.3931 61.936 75.4943 61.849 75.5789C61.6715 75.7518 61.4332 75.8485 61.185 75.8485C60.9369 75.8485 60.6986 75.7518 60.5211 75.5789C60.4342 75.4943 60.3652 75.3933 60.3181 75.2818C60.271 75.1702 60.2467 75.0504 60.2467 74.9293C60.2467 74.8083 60.271 74.6885 60.3181 74.5769C60.3652 74.4654 60.4342 74.3643 60.5211 74.2798C60.6984 74.1065 60.9368 74.0095 61.185 74.0095C61.4333 74.0095 61.6717 74.1065 61.849 74.2798C61.9358 74.3642 62.0048 74.4651 62.0519 74.5765C62.0991 74.688 62.1234 74.8077 62.1236 74.9286ZM63.0636 79.1875C63.0635 79.3087 63.0391 79.4286 62.992 79.5403C62.9449 79.6519 62.8759 79.7531 62.789 79.8378C62.6114 80.0111 62.3728 80.1082 62.1243 80.1082C61.8758 80.1082 61.6372 80.0111 61.4596 79.8378C61.3727 79.7531 61.3036 79.652 61.2565 79.5403C61.2094 79.4286 61.1851 79.3087 61.1851 79.1875C61.1851 79.0663 61.2094 78.9464 61.2565 78.8347C61.3036 78.723 61.3727 78.6219 61.4596 78.5372C61.6372 78.3639 61.8758 78.2668 62.1243 78.2668C62.3728 78.2668 62.6114 78.3639 62.789 78.5372C62.8759 78.6219 62.945 78.723 62.9921 78.8347C63.0393 78.9464 63.0636 79.0663 63.0636 79.1875Z" fill="#1D1919"/>
</g>
<defs>
<clipPath id="clip0_199_451">
<rect width="94" height="125" fill="white"/>
</clipPath>
</defs>
</svg>
