<svg width="126" height="124" viewBox="0 0 126 124" fill="none" xmlns="http://www.w3.org/2000/svg">
<g clip-path="url(#clip0_196_301)">
<mask id="mask0_196_301" style="mask-type:luminance" maskUnits="userSpaceOnUse" x="1" y="0" width="125" height="124">
<path d="M1.66388 0H125.193V124H1.66388V0Z" fill="white"/>
</mask>
<g mask="url(#mask0_196_301)">
<path d="M40.9389 120.696C39.5091 120.699 38.0974 120.375 36.8113 119.748C35.5251 119.121 34.3984 118.208 33.5169 117.078L5.58304 82.1011C3.74775 79.7687 3.0301 76.7942 3.74775 73.8994L13.7242 30.2396C14.3625 27.3448 16.2772 25.0139 18.9125 23.7267L59.2948 4.26604C60.5851 3.62655 62.0058 3.29657 63.4448 3.30208C64.8839 3.29603 66.3047 3.62604 67.5948 4.26604L107.979 23.644C110.612 24.9312 112.529 27.2621 113.167 30.1569L123.142 73.8182C123.782 76.7116 123.142 79.6876 121.307 82.0199L93.3757 116.998C91.5389 119.248 88.8257 120.615 85.9536 120.615L40.9389 120.696Z" fill="#326DE6"/>
<path d="M63.5477 5.25512C64.6788 5.2539 65.7966 5.50077 66.8227 5.97846L107.242 25.3461C109.318 26.3912 110.915 28.3206 111.395 30.5718L121.379 74.2154C121.655 75.3567 121.662 76.5472 121.399 77.6917C121.135 78.8362 120.609 79.9029 119.861 80.8066L91.9051 115.77C90.4683 117.618 88.2315 118.663 85.9154 118.663H41.1051C38.7874 118.663 36.5507 117.618 35.1139 115.77L7.15802 80.808C6.44436 79.8854 5.93901 78.8181 5.67696 77.68C5.41491 76.5419 5.40243 75.3603 5.64037 74.2168L15.6257 30.5733C16.1845 28.2409 17.7007 26.313 19.7771 25.3476L60.1948 5.89726C61.2652 5.48382 62.4008 5.26633 63.5477 5.25512ZM63.5477 1.47607C61.8713 1.47607 60.1948 1.8776 58.5962 2.60093L18.1801 22.0542C14.9845 23.582 12.7492 26.3942 11.9507 29.8499L1.96537 73.4935C1.16684 76.9493 1.96537 80.4862 4.20213 83.2998L32.158 118.263C34.3154 120.996 37.5904 122.524 41.0242 122.524H85.833C89.2683 122.524 92.5433 120.996 94.6992 118.263L122.655 83.2998C124.89 80.5659 125.69 76.9493 124.89 73.4935L114.909 29.8485C114.111 26.3942 111.874 23.5806 108.679 22.0542L68.4212 2.59946C66.8987 1.86847 65.2354 1.48483 63.5477 1.47607Z" fill="white"/>
<path d="M103.873 70.6592C103.793 70.6592 103.793 70.6592 103.873 70.6592H103.793C103.714 70.6592 103.635 70.6592 103.635 70.5794C103.474 70.5794 103.315 70.4983 103.155 70.4983C102.596 70.4171 102.117 70.3359 101.637 70.3359C101.398 70.3359 101.16 70.3359 100.839 70.2562H100.76C99.0831 70.0938 97.7257 69.9329 96.4478 69.5299C95.8889 69.2878 95.7301 68.9645 95.5698 68.6427C95.5698 68.5615 95.4904 68.5615 95.4904 68.4803L94.4522 68.1585C94.9425 64.363 94.7532 60.5101 93.8933 56.7815C93.0228 53.0255 91.5102 49.4493 89.4228 46.212L90.2213 45.4857V45.3233C90.2213 44.9203 90.3007 44.5173 90.6198 44.1128C91.5772 43.2271 92.7757 42.5008 94.2125 41.6122C94.4522 41.4513 94.6919 41.3701 94.9316 41.2092C95.4013 40.9704 95.8547 40.7006 96.2889 40.4017C96.3683 40.322 96.5272 40.2408 96.6875 40.0799C96.7683 39.9987 96.8477 39.9987 96.8477 39.9175C97.9654 38.9506 98.2051 37.3371 97.4066 36.2861C97.0066 35.7222 96.2889 35.4004 95.5698 35.4004C94.9316 35.4004 94.3727 35.641 93.8139 36.0454L93.6536 36.2064C93.4948 36.2875 93.4139 36.4484 93.2551 36.5296C92.8875 36.8855 92.5408 37.2626 92.2169 37.6589C92.058 37.8213 91.8978 38.0619 91.658 38.2228C90.5404 39.4333 89.5022 40.4017 88.4639 41.128C88.2544 41.2793 88.0043 41.3637 87.7463 41.3701C87.586 41.3701 87.4257 41.3701 87.2669 41.2889H87.108L86.1492 41.9354C85.111 40.8062 83.9933 39.8378 82.8757 38.8694C78.0716 35.0711 72.2775 32.7455 66.1889 32.1719L66.1095 31.1238L65.9492 30.9614C65.7095 30.7194 65.3904 30.4773 65.311 29.9134C65.2316 28.6217 65.3904 27.1691 65.5507 25.5556V25.4759C65.5507 25.2323 65.6301 24.9105 65.7095 24.6684C65.7904 24.1843 65.8698 23.7001 65.9492 23.1347V22.4099C65.9492 20.9573 64.8316 19.7468 63.4742 19.7468C62.836 19.7468 62.1978 20.0686 61.7183 20.5528C61.2389 21.037 60.9992 21.6821 60.9992 22.4099V23.055C60.9992 23.6189 61.0801 24.1031 61.2389 24.5873C61.3183 24.8294 61.3183 25.0714 61.3992 25.3947V25.4759C61.558 27.0894 61.7978 28.5405 61.6389 29.8322C61.558 30.3975 61.2389 30.6396 60.9992 30.8803L60.8404 31.0426L60.7595 32.0907C59.3228 32.2531 57.886 32.414 56.4492 32.7373C50.3919 34.0785 44.8807 37.2285 40.6404 41.7731L39.8419 41.2092H39.683C39.5228 41.2092 39.3625 41.2889 39.2036 41.2889C38.9453 41.2831 38.6946 41.1993 38.4845 41.0483C37.4463 40.322 36.4095 39.2724 35.2919 38.0619C35.1316 37.901 34.9727 37.6589 34.733 37.498C34.4089 37.1019 34.0622 36.7248 33.6948 36.3687C33.6154 36.2875 33.4551 36.2064 33.2963 36.044C33.2154 35.9643 33.136 35.9643 33.136 35.8845C32.6423 35.4716 32.0213 35.2431 31.3786 35.238C30.661 35.238 29.9419 35.5613 29.5433 36.1252C28.7448 37.1733 28.9845 38.7882 30.1022 39.7566C30.1816 39.7566 30.1816 39.8378 30.261 39.8378C30.4213 39.919 30.5007 40.0799 30.661 40.1596C31.1404 40.4829 31.5389 40.725 32.0183 40.9671C32.258 41.0483 32.4977 41.2092 32.7375 41.3701C34.1742 42.2573 35.3713 42.9835 36.3301 43.8722C36.7286 44.2752 36.7286 44.6782 36.7286 45.0827V45.2436L37.5272 45.9699C37.3669 46.212 37.208 46.3729 37.1272 46.615C33.136 52.9892 31.6183 60.4926 32.6566 67.9164L31.6183 68.2382C31.6183 68.3194 31.5389 68.3194 31.5389 68.4006C31.3563 68.7883 31.0463 69.101 30.661 69.2863C29.4639 69.6908 28.0257 69.8532 26.3492 70.0141H26.2698C26.0301 70.0141 25.711 70.0141 25.4713 70.0953C24.9919 70.0953 24.5139 70.175 23.9551 70.2562C23.7948 70.2562 23.636 70.3373 23.4757 70.3373C23.3948 70.3373 23.3154 70.3373 23.236 70.4171C21.7977 70.7403 20.9198 72.1117 21.1595 73.4019C21.3992 74.5327 22.4375 75.259 23.7139 75.259C23.9551 75.259 24.1139 75.259 24.3536 75.1778C24.433 75.1778 24.5139 75.1778 24.5139 75.0981C24.6727 75.0981 24.8316 75.0169 24.9919 75.0169C25.5507 74.8545 25.9507 74.6936 26.4286 74.4515C26.6683 74.3718 26.908 74.2094 27.1478 74.1297H27.2272C28.7448 73.5643 30.1022 73.0801 31.3786 72.9192H31.5389C32.0183 72.9192 32.3375 73.1613 32.5772 73.3222C32.6566 73.3222 32.6566 73.4034 32.736 73.4034L33.8536 73.241C35.7767 79.2209 39.4155 84.4978 44.3139 88.4103C45.4316 89.2975 46.5492 90.0238 47.7463 90.7501L47.2669 91.7982C47.2669 91.8809 47.3463 91.8809 47.3463 91.9606C47.5066 92.2839 47.6669 92.6869 47.5066 93.2508C47.0286 94.4613 46.3095 95.6717 45.4316 97.0446V97.1243C45.2713 97.3664 45.1125 97.5288 44.9522 97.7694C44.633 98.1739 44.3933 98.5769 44.0728 99.0611C43.9758 99.1841 43.8957 99.3197 43.8345 99.4641C43.8345 99.5452 43.7551 99.6264 43.7551 99.6264C43.1154 100.998 43.5948 102.53 44.7919 103.095C45.111 103.258 45.4301 103.338 45.7507 103.338C46.708 103.338 47.6669 102.692 48.1463 101.804C48.1463 101.724 48.2257 101.643 48.2257 101.643C48.3051 101.481 48.3845 101.321 48.4654 101.24C48.7051 100.675 48.7845 100.272 48.9433 99.7873L49.183 99.0611C49.7419 97.4476 50.1419 96.1559 50.8595 95.0266C51.1786 94.5424 51.5801 94.4627 51.8978 94.3004C51.9772 94.3004 51.9772 94.3004 52.0566 94.2192L52.6154 93.1711C56.1807 94.5561 59.9704 95.2673 63.7933 95.2687C66.1095 95.2687 68.5051 95.0266 70.7404 94.4627C72.1478 94.1439 73.5345 93.7394 74.8919 93.2523L75.3698 94.138C75.4507 94.138 75.4507 94.138 75.5316 94.2192C75.9286 94.3004 76.2492 94.4627 76.5683 94.9469C77.2066 96.0762 77.686 97.4476 78.2448 98.9814V99.0611L78.4845 99.7873C78.6433 100.272 78.7242 100.756 78.9625 101.24C79.0433 101.401 79.1242 101.482 79.2022 101.643C79.2022 101.724 79.283 101.805 79.283 101.805C79.761 102.772 80.7198 103.338 81.6772 103.338C81.9978 103.338 82.3169 103.256 82.636 103.095C83.1948 102.774 83.6742 102.288 83.8345 101.643C83.9933 100.998 83.9933 100.27 83.6742 99.6264C83.6742 99.5452 83.5933 99.5452 83.5933 99.4641C83.5139 99.3032 83.4345 99.1423 83.3551 99.0611C83.1154 98.5769 82.7963 98.1739 82.4772 97.7694C82.3169 97.5288 82.1566 97.3664 81.9978 97.1258V97.0446C81.1183 95.6717 80.3213 94.4613 79.9213 93.2508C79.7625 92.6869 79.9213 92.3651 80.0007 91.9606C80.0007 91.8809 80.0816 91.8809 80.0816 91.7997L79.6816 90.8313C83.9139 88.3306 87.5051 84.7789 90.2213 80.4227C91.6581 78.1641 92.7757 75.662 93.5742 73.1598L94.5316 73.3222C94.6125 73.3222 94.6125 73.241 94.6919 73.241C95.011 73.0801 95.2507 72.838 95.7301 72.838H95.8889C97.1669 73.0004 98.5242 73.4831 100.042 74.0485H100.121C100.361 74.1297 100.599 74.2906 100.839 74.3703C101.318 74.6124 101.718 74.7748 102.277 74.9357C102.436 74.9357 102.595 75.0169 102.755 75.0169C102.835 75.0169 102.915 75.0169 102.995 75.0981C103.235 75.1778 103.395 75.1778 103.635 75.1778C104.832 75.1778 105.87 74.3718 106.189 73.3222C106.189 72.3538 105.311 71.0622 103.873 70.6592ZM66.908 66.7059L63.3933 68.4006L59.8816 66.7059L59.0036 62.9136L61.3992 59.8475H65.311L67.7066 62.9136L66.908 66.7059ZM87.7463 58.3153C88.3639 60.9827 88.5551 63.7343 88.3051 66.4638L76.0889 62.9136C75.5563 62.7578 75.1029 62.4039 74.8212 61.9242C74.5395 61.4445 74.4506 60.875 74.5728 60.3317C74.6522 60.0084 74.8125 59.6866 75.0507 59.4445L84.7125 50.6494C86.0683 52.908 87.1066 55.4913 87.7463 58.3138V58.3153ZM80.8786 45.809L70.4213 53.3125C69.9783 53.5928 69.4476 53.6985 68.9316 53.6091C68.4156 53.5196 67.9508 53.2415 67.6272 52.8283C67.3875 52.5862 67.3066 52.2629 67.2272 51.9411L66.508 38.7882C71.9533 39.4245 77.0199 41.9002 80.8786 45.809ZM57.7257 39.1912C58.6051 39.0288 59.4022 38.8694 60.2816 38.707L59.5625 51.6178C59.483 52.7471 58.6051 53.714 57.4066 53.714C57.0875 53.714 56.6889 53.6343 56.4492 53.4734L45.8316 45.809C49.0883 42.5121 53.2145 40.2163 57.7257 39.1912ZM41.9978 50.6494L51.4978 59.201C52.3772 59.9273 52.4566 61.2986 51.7389 62.1873C51.4992 62.5091 51.1801 62.7512 50.7801 62.8324L38.4051 66.4638C37.9257 60.9768 39.1227 55.4101 41.9978 50.6494ZM39.8419 72.5147L52.5375 70.3359C53.5742 70.2562 54.533 70.9824 54.7727 72.0305C54.8522 72.5147 54.8522 72.9192 54.6919 73.3222L49.8228 85.1819C45.3522 82.2783 41.758 77.8379 39.8419 72.5147ZM68.983 88.5713C67.1478 88.9743 65.311 89.2164 63.3948 89.2164C60.6007 89.2164 57.886 88.7336 55.3316 87.9262L61.6389 76.3883C62.2772 75.662 63.3154 75.3402 64.1933 75.8229C64.5654 76.0546 64.8919 76.3543 65.1507 76.7101L71.2978 87.9262C70.5801 88.1683 69.783 88.3292 68.983 88.5713ZM84.5522 77.3566C82.5566 80.5836 79.9198 83.1654 76.8875 85.1819L71.858 72.9989C71.6183 72.0305 72.0169 70.9824 72.9757 70.4968C73.2948 70.3359 73.6933 70.2562 74.0933 70.2562L86.8669 72.4335C86.3889 74.2094 85.5904 75.8229 84.5522 77.3566Z" fill="white"/>
</g>
</g>
<defs>
<clipPath id="clip0_196_301">
<rect width="125" height="124" fill="white" transform="translate(0.928589)"/>
</clipPath>
</defs>
</svg>
