<svg width="126" height="124" viewBox="0 0 126 124" fill="none" xmlns="http://www.w3.org/2000/svg">
<path d="M57.9663 1.32273C61.1016 -0.436891 65.184 -0.444272 68.3163 1.32273C84.0693 10.0559 99.8296 18.7743 115.581 27.5133C118.544 29.1504 120.525 32.3847 120.496 35.7327V88.2733C120.518 91.7615 118.34 95.0726 115.215 96.6728C99.5105 105.356 83.8178 114.051 68.1163 122.738C64.9178 124.531 60.7531 124.393 57.6546 122.452C52.9472 119.775 48.231 117.111 43.5222 114.436C42.5605 113.875 41.4766 113.426 40.7972 112.511C41.3972 111.717 42.4708 111.618 43.3443 111.271C45.309 110.658 47.1134 109.675 48.9178 108.72C49.3752 108.413 49.9325 108.531 50.3708 108.804C54.3957 111.069 58.3855 113.4 62.4252 115.642C63.2869 116.129 64.1605 115.482 64.8958 115.079C80.3046 106.535 95.734 98.025 111.14 89.4793C111.71 89.2092 112.025 88.6143 111.98 88.0017C111.99 70.6697 111.983 53.3348 111.985 36.0029C112.05 35.3076 111.64 34.6669 110.999 34.382C95.3487 25.7374 79.7105 17.0796 64.0649 8.43058C63.792 8.24723 63.4711 8.14935 63.1428 8.14935C62.8145 8.14935 62.4936 8.24723 62.2208 8.43058C46.5752 17.0796 30.9384 25.7448 15.2943 34.3879C14.6531 34.6728 14.2252 35.3032 14.3002 36.0014C14.3031 53.3319 14.3002 70.6683 14.3002 88.0032C14.2732 88.3025 14.3401 88.6029 14.4913 88.8623C14.6443 89.1236 14.8737 89.3332 15.1516 89.4616C19.3266 91.7837 23.5075 94.0895 27.6855 96.4042C30.0384 97.6471 32.9281 98.3852 35.5207 97.4331C37.809 96.6285 39.4134 94.3375 39.3693 91.9534C39.3913 74.7233 39.359 57.4903 39.3869 40.2617C39.3281 39.497 40.0693 38.8652 40.8281 38.9375C42.8325 38.9228 44.8428 38.911 46.8472 38.942C47.6855 38.9242 48.2619 39.748 48.1575 40.5185C48.1502 57.8579 48.1796 75.1987 48.1443 92.538C48.1502 97.1585 46.2149 102.188 41.8575 104.449C36.4899 107.177 29.8531 106.599 24.5502 103.983C19.959 101.735 15.5796 99.082 11.0693 96.6728C7.93545 95.0815 5.76781 91.7571 5.78987 88.2733V35.7313C5.75751 32.3139 7.81928 29.0205 10.8722 27.407C26.5737 18.7182 42.2693 10.019 57.9678 1.3242L57.9663 1.32273Z" fill="#8CC84B"/>
<path d="M71.1723 38.5463C77.784 38.1286 84.8634 38.2983 90.812 41.5017C95.4193 43.9551 97.9737 49.1055 98.0546 54.1378C97.9252 54.8169 97.2046 55.1904 96.5443 55.1446C94.6267 55.1417 92.7076 55.1697 90.7899 55.1313C89.9752 55.1623 89.5031 54.4242 89.4002 53.7171C88.8487 51.3109 87.5134 48.9254 85.209 47.7637C81.6708 46.0218 77.5678 46.1103 73.709 46.1458C70.8928 46.2934 67.8649 46.5325 65.4781 48.1622C63.6473 49.3948 63.0899 51.8852 63.7428 53.8899C64.3605 55.3306 66.0517 55.7941 67.434 56.2222C75.4031 58.2727 83.8458 58.0675 91.6634 60.7645C94.8987 61.8642 98.0649 64.0018 99.1723 67.3335C100.621 71.7975 99.9855 77.1339 96.7546 80.7181C94.1355 83.6676 90.3193 85.2722 86.5134 86.1446C81.4502 87.2547 76.1958 87.2813 71.0531 86.7897C66.2193 86.2479 61.187 84.9991 57.4546 81.7603C54.2634 79.0353 52.7046 74.7898 52.859 70.6919C52.8958 70.001 53.5973 69.5183 54.2708 69.5744C56.2031 69.5596 58.1355 69.5537 60.0664 69.5773C60.8384 69.5227 61.4105 70.1781 61.4487 70.8941C61.8061 73.1881 62.684 75.5958 64.7178 76.9553C68.6443 79.4457 73.5708 79.2759 78.0664 79.3453C81.7914 79.1829 85.9723 79.1327 89.012 76.7132C90.6149 75.333 91.0914 73.0228 90.6575 71.0358C90.187 69.3574 88.4031 68.5765 86.8708 68.0657C79.0031 65.6182 70.4664 66.5069 62.6752 63.7405C59.5134 62.6407 56.4546 60.5637 55.2399 57.3692C53.5443 52.8477 54.3208 47.2559 57.8914 43.7927C61.3708 40.3473 66.3958 39.0217 71.1723 38.5463Z" fill="#8CC84B"/>
</svg>
