<svg width="126" height="124" viewBox="0 0 126 124" fill="none" xmlns="http://www.w3.org/2000/svg">
<mask id="mask0_200_557" style="mask-type:luminance" maskUnits="userSpaceOnUse" x="1" y="0" width="124" height="124">
<path d="M1.23523 0H124.765V124H1.23523V0Z" fill="white"/>
</mask>
<g mask="url(#mask0_200_557)">
<path d="M62.9999 72.971C65.9254 72.971 68.7312 71.8044 70.7999 69.7278C72.8686 67.6513 74.0308 64.8348 74.0308 61.8981C74.0308 58.9614 72.8686 56.1449 70.7999 54.0684C68.7312 51.9918 65.9254 50.8252 62.9999 50.8252C60.0743 50.8252 57.2686 51.9918 55.1999 54.0684C53.1312 56.1449 51.969 58.9614 51.969 61.8981C51.969 64.8348 53.1312 67.6513 55.1999 69.7278C57.2686 71.8044 60.0743 72.971 62.9999 72.971Z" fill="#00D8FF"/>
<path fill-rule="evenodd" clip-rule="evenodd" d="M62.9999 39.3848C77.8117 39.3848 91.569 41.5179 101.943 45.1021C114.443 49.4214 122.128 55.9698 122.128 61.8981C122.128 68.076 113.982 75.0318 100.56 79.4943C90.4131 82.8704 77.0602 84.6315 63.0014 84.6315C48.5867 84.6315 34.9367 82.9781 24.6749 79.4574C11.6911 75.0052 3.87195 67.9594 3.87195 61.8981C3.87195 56.017 11.2102 49.5203 23.5337 45.2083C33.9455 41.5636 48.0455 39.3848 62.9999 39.3848Z" stroke="#00D8FF" stroke-width="2.734"/>
<path fill-rule="evenodd" clip-rule="evenodd" d="M43.4763 50.7072C50.8763 37.8274 59.5896 26.9287 67.866 19.6998C77.8366 10.9888 87.3263 7.57732 92.4425 10.5386C97.7749 13.6238 99.7072 24.1815 96.8543 38.0843C94.6999 48.5947 89.5484 61.0848 82.5249 73.3106C75.3234 85.8435 67.0778 96.8868 58.9146 104.051C48.5837 113.115 38.5969 116.395 33.3675 113.367C28.2925 110.432 26.3528 100.805 28.7866 87.9323C30.8425 77.0587 36.0057 63.7109 43.4749 50.7057L43.4763 50.7072Z" stroke="#00D8FF" stroke-width="2.734"/>
<path fill-rule="evenodd" clip-rule="evenodd" d="M43.494 73.343C36.0749 60.4795 31.0234 47.455 28.9146 36.6478C26.3763 23.6249 28.1705 13.668 33.2822 10.6979C38.6087 7.60231 48.6852 11.1939 59.2587 20.6179C67.2528 27.742 75.4616 38.4591 82.5058 50.6731C89.7263 63.1956 95.1396 75.882 97.2455 86.5593C99.9102 100.069 97.7528 110.392 92.5278 113.429C87.4587 116.375 78.1808 113.256 68.2881 104.711C59.9293 97.492 50.9881 86.3364 43.494 73.343Z" stroke="#00D8FF" stroke-width="2.734"/>
</g>
</svg>
