<svg width="126" height="125" viewBox="0 0 126 125" fill="none" xmlns="http://www.w3.org/2000/svg">
<g clip-path="url(#clip0_200_526)">
<path d="M114.157 7.2165C112.42 11.388 110.171 15.3271 107.463 18.9433C101.665 12.9386 94.7223 8.15916 87.0462 4.88771C79.3702 1.61625 71.1166 -0.0807198 62.7738 -0.102809C54.431 -0.124898 46.1686 1.52835 38.4754 4.75911C30.7821 7.98986 23.8144 12.7325 17.9844 18.7064C12.1545 24.6803 7.58074 31.7641 4.53386 39.5386C1.48698 47.3131 0.0288577 55.6204 0.245759 63.969C0.46266 72.3176 2.35018 80.5378 5.79664 88.1433C9.24311 95.7487 14.1785 102.585 20.3108 108.247L22.628 110.309C31.4214 117.733 42.0958 122.576 53.4692 124.301C64.8426 126.026 76.471 124.566 87.0667 120.083C97.6624 115.601 106.812 108.27 113.502 98.9023C120.192 89.5349 124.162 78.4968 124.971 67.0103C126.773 51.2887 122.01 31.1856 114.157 7.2165ZM29.3221 108.763C28.6602 109.577 27.7721 110.177 26.7699 110.486C25.7677 110.795 24.6965 110.8 23.6916 110.499C22.6868 110.199 21.7933 109.608 21.1243 108.799C20.4552 107.991 20.0405 107.002 19.9326 105.958C19.8247 104.914 20.0284 103.861 20.518 102.933C21.0076 102.005 21.7612 101.242 22.6834 100.743C23.6056 100.243 24.6551 100.028 25.6992 100.125C26.7434 100.222 27.7353 100.627 28.5497 101.289C29.6173 102.194 30.2938 103.477 30.4378 104.87C30.5817 106.263 30.182 107.658 29.3221 108.763ZM113.771 90.0773C98.4519 110.567 65.4961 103.608 44.5126 104.639C44.5126 104.639 40.7794 104.897 37.0461 105.412C37.0461 105.412 38.4622 104.768 40.2644 104.124C55.0687 98.9691 62.0203 97.9381 71.0317 93.299C87.8957 84.6649 104.76 65.7216 108.107 46.134C101.67 64.9485 82.1027 81.1856 64.3375 87.7577C52.1079 92.268 30.0945 96.6495 30.0945 96.6495L29.1934 96.134C14.2603 88.7887 13.7454 56.3144 41.0368 45.8763C53.009 41.2371 64.3375 43.8144 77.3396 40.7217C91.1141 37.5 107.077 27.1907 113.514 13.6598C120.723 35.4381 129.477 69.201 113.771 90.0773Z" fill="#6DB33F"/>
</g>
<defs>
<clipPath id="clip0_200_526">
<rect width="125" height="125" fill="white" transform="translate(0.357117)"/>
</clipPath>
</defs>
</svg>
