<svg width="44" height="44" viewBox="0 0 44 44" fill="none" xmlns="http://www.w3.org/2000/svg">
<rect width="44" height="44" rx="4" fill="#F0F1F5"/>
<path d="M30 16H18C17.4696 16 16.9609 16.2107 16.5858 16.5858C16.2107 16.9609 16 17.4696 16 18V32H28.2333C29.704 30.5287 30.5287 29.704 32 28.2333V18C32 17.4696 31.7893 16.9609 31.4142 16.5858C31.0391 16.2107 30.5304 16 30 16V16ZM17.3333 18C17.3333 17.8232 17.4036 17.6536 17.5286 17.5286C17.6536 17.4036 17.8232 17.3333 18 17.3333H30C30.1768 17.3333 30.3464 17.4036 30.4714 17.5286C30.5964 17.6536 30.6667 17.8232 30.6667 18V26.6667H26.6667V30.6667H17.3333V18ZM28 30.3473V28H30.3473L28 30.3473Z" fill="url(#paint0_linear_148_198)"/>
<path d="M20.3335 19.3379L18.7642 23.4585H19.6562L20.0002 22.5492H21.3662L21.7088 23.4579H22.6002L21.0442 19.3332L20.3335 19.3379ZM20.3202 21.7159L20.6875 20.7512L21.0515 21.7159H20.3202Z" fill="url(#paint1_linear_148_198)"/>
<path d="M24.2707 19.3748H23.4374V23.4208H24.2707V19.3748Z" fill="url(#paint2_linear_148_198)"/>
<path d="M24 13.4996C24 13.1681 24.1318 12.8503 24.3662 12.6158C24.6006 12.3814 24.9185 12.2496 25.25 12.2496H25.7197C25.8211 11.857 26.0619 11.5144 26.3975 11.2867C26.7331 11.0591 27.1407 10.9623 27.543 11.0133C27.9453 11.0644 28.3158 11.2598 28.584 11.5641C28.8521 11.8685 29 12.261 29 12.6666C28.9999 13.0722 28.8521 13.4639 28.584 13.7682C28.3158 14.0726 27.9454 14.2688 27.543 14.3199C27.1407 14.3709 26.7331 14.2731 26.3975 14.0455C26.0619 13.8179 25.8211 13.4753 25.7197 13.0826H25.25C25.1395 13.0826 25.0332 13.1266 24.9551 13.2047C24.8769 13.2829 24.833 13.3891 24.833 13.4996V15.9996H24V13.4996ZM26.5156 12.8287C26.5478 12.9904 26.6276 13.139 26.7441 13.2555C26.8607 13.372 27.0092 13.4519 27.1709 13.484C27.3325 13.5161 27.5001 13.4992 27.6523 13.4362C27.8045 13.3731 27.9348 13.2665 28.0264 13.1295C28.1179 12.9926 28.1669 12.8313 28.167 12.6666C28.167 12.4456 28.0791 12.2331 27.9229 12.0768C27.7666 11.9205 27.554 11.8326 27.333 11.8326C27.1683 11.8327 27.0071 11.8818 26.8701 11.9733C26.7332 12.0648 26.6265 12.1951 26.5635 12.3473C26.5004 12.4995 26.4835 12.6672 26.5156 12.8287Z" fill="url(#paint3_linear_148_198)"/>
<path d="M20 13.4996C20 13.1681 19.8682 12.8503 19.6338 12.6158C19.3994 12.3814 19.0815 12.2496 18.75 12.2496H18.2803C18.1789 11.857 17.9381 11.5144 17.6025 11.2867C17.2669 11.0591 16.8593 10.9623 16.457 11.0133C16.0547 11.0644 15.6842 11.2598 15.416 11.5641C15.1479 11.8685 15 12.261 15 12.6666C15.0001 13.0722 15.1479 13.4639 15.416 13.7682C15.6842 14.0726 16.0546 14.2688 16.457 14.3199C16.8593 14.3709 17.2669 14.2731 17.6025 14.0455C17.9381 13.8179 18.1789 13.4753 18.2803 13.0826H18.75C18.8605 13.0826 18.9668 13.1266 19.0449 13.2047C19.1231 13.2829 19.167 13.3891 19.167 13.4996V15.9996H20V13.4996ZM17.4844 12.8287C17.4522 12.9904 17.3724 13.139 17.2559 13.2555C17.1393 13.372 16.9908 13.4519 16.8291 13.484C16.6675 13.5161 16.4999 13.4992 16.3477 13.4362C16.1955 13.3731 16.0652 13.2665 15.9736 13.1295C15.8821 12.9926 15.8331 12.8313 15.833 12.6666C15.833 12.4456 15.9209 12.2331 16.0771 12.0768C16.2334 11.9205 16.446 11.8326 16.667 11.8326C16.8317 11.8327 16.9929 11.8818 17.1299 11.9733C17.2668 12.0648 17.3735 12.1951 17.4365 12.3473C17.4996 12.4995 17.5165 12.6672 17.4844 12.8287Z" fill="url(#paint4_linear_148_198)"/>
<path d="M13.4996 31C13.1681 31 12.8503 30.8682 12.6158 30.6338C12.3814 30.3994 12.2496 30.0815 12.2496 29.75V29.2803C11.857 29.1789 11.5144 28.9381 11.2867 28.6025C11.0591 28.2669 10.9623 27.8593 11.0133 27.457C11.0644 27.0547 11.2598 26.6842 11.5641 26.416C11.8685 26.1479 12.261 26 12.6666 26C13.0722 26.0001 13.4639 26.1479 13.7682 26.416C14.0726 26.6842 14.2688 27.0546 14.3199 27.457C14.3709 27.8593 14.2731 28.2669 14.0455 28.6025C13.8179 28.9381 13.4753 29.1789 13.0826 29.2803V29.75C13.0826 29.8605 13.1266 29.9668 13.2047 30.0449C13.2829 30.1231 13.3891 30.167 13.4996 30.167H15.9996V31H13.4996ZM12.8287 28.4844C12.9904 28.4522 13.139 28.3724 13.2555 28.2559C13.372 28.1393 13.4519 27.9908 13.484 27.8291C13.5161 27.6675 13.4992 27.4999 13.4362 27.3477C13.3731 27.1955 13.2665 27.0652 13.1295 26.9736C12.9926 26.8821 12.8313 26.8331 12.6666 26.833C12.4456 26.833 12.2331 26.9209 12.0768 27.0771C11.9205 27.2334 11.8326 27.446 11.8326 27.667C11.8327 27.8317 11.8818 27.9929 11.9733 28.1299C12.0648 28.2668 12.1951 28.3735 12.3473 28.4365C12.4995 28.4996 12.6672 28.5165 12.8287 28.4844Z" fill="url(#paint5_linear_148_198)"/>
<path d="M13.4996 19C13.1681 19 12.8503 19.1318 12.6158 19.3662C12.3814 19.6006 12.2496 19.9185 12.2496 20.25V20.7197C11.857 20.8211 11.5144 21.0619 11.2867 21.3975C11.0591 21.7331 10.9623 22.1407 11.0133 22.543C11.0644 22.9453 11.2598 23.3158 11.5641 23.584C11.8685 23.8521 12.261 24 12.6666 24C13.0722 23.9999 13.4639 23.8521 13.7682 23.584C14.0726 23.3158 14.2688 22.9454 14.3199 22.543C14.3709 22.1407 14.2731 21.7331 14.0455 21.3975C13.8179 21.0619 13.4753 20.8211 13.0826 20.7197V20.25C13.0826 20.1395 13.1266 20.0332 13.2047 19.9551C13.2829 19.8769 13.3891 19.833 13.4996 19.833H15.9996V19H13.4996ZM12.8287 21.5156C12.9904 21.5478 13.139 21.6276 13.2555 21.7441C13.372 21.8607 13.4519 22.0092 13.484 22.1709C13.5161 22.3325 13.4992 22.5001 13.4362 22.6523C13.3731 22.8045 13.2665 22.9348 13.1295 23.0264C12.9926 23.1179 12.8313 23.1669 12.6666 23.167C12.4456 23.167 12.2331 23.0791 12.0768 22.9229C11.9205 22.7666 11.8326 22.554 11.8326 22.333C11.8327 22.1683 11.8818 22.0071 11.9733 21.8701C12.0648 21.7332 12.1951 21.6265 12.3473 21.5635C12.4995 21.5004 12.6672 21.4835 12.8287 21.5156Z" fill="url(#paint6_linear_148_198)"/>
<defs>
<linearGradient id="paint0_linear_148_198" x1="16.1" y1="16.1" x2="32" y2="32" gradientUnits="userSpaceOnUse">
<stop offset="0.00216856" stop-color="#7F00FF"/>
<stop offset="1" stop-color="#24C0F4"/>
</linearGradient>
<linearGradient id="paint1_linear_148_198" x1="18.7881" y1="19.359" x2="22.8769" y2="23.1609" gradientUnits="userSpaceOnUse">
<stop offset="0.00216856" stop-color="#7F00FF"/>
<stop offset="1" stop-color="#24C0F4"/>
</linearGradient>
<linearGradient id="paint2_linear_148_198" x1="23.4426" y1="19.4" x2="25.0314" y2="19.7273" gradientUnits="userSpaceOnUse">
<stop offset="0.00216856" stop-color="#7F00FF"/>
<stop offset="1" stop-color="#24C0F4"/>
</linearGradient>
<linearGradient id="paint3_linear_148_198" x1="24.0313" y1="15.9684" x2="28.9996" y2="10.9996" gradientUnits="userSpaceOnUse">
<stop offset="0.00216856" stop-color="#7F00FF"/>
<stop offset="1" stop-color="#24C0F4"/>
</linearGradient>
<linearGradient id="paint4_linear_148_198" x1="19.9687" y1="15.9684" x2="15.0004" y2="10.9996" gradientUnits="userSpaceOnUse">
<stop offset="0.00216856" stop-color="#7F00FF"/>
<stop offset="1" stop-color="#24C0F4"/>
</linearGradient>
<linearGradient id="paint5_linear_148_198" x1="15.9684" y1="30.9687" x2="10.9996" y2="26.0004" gradientUnits="userSpaceOnUse">
<stop offset="0.00216856" stop-color="#7F00FF"/>
<stop offset="1" stop-color="#24C0F4"/>
</linearGradient>
<linearGradient id="paint6_linear_148_198" x1="15.9684" y1="19.0313" x2="10.9996" y2="23.9996" gradientUnits="userSpaceOnUse">
<stop offset="0.00216856" stop-color="#7F00FF"/>
<stop offset="1" stop-color="#24C0F4"/>
</linearGradient>
</defs>
</svg>
