<svg width="24" height="24" viewBox="0 0 24 24" fill="none" xmlns="http://www.w3.org/2000/svg">
<g clip-path="url(#clip0_2062_108)">
<mask id="path-1-inside-1_2062_108" fill="white">
<path d="M21.4172 11.1582L21.4172 5.6159C21.3988 4.82616 21.0769 4.07387 20.5183 3.51528C19.9597 2.9567 19.2074 2.63477 18.4177 2.61635L12.8747 2.61564V4.61534L18.0118 4.61605L2.86343 19.8012L4.27765 21.2154L19.4182 6.03804L19.4175 11.1582L21.4172 11.1582Z"/>
</mask>
<path d="M21.4172 11.1582L21.4172 5.6159C21.3988 4.82616 21.0769 4.07387 20.5183 3.51528C19.9597 2.9567 19.2074 2.63477 18.4177 2.61635L12.8747 2.61564V4.61534L18.0118 4.61605L2.86343 19.8012L4.27765 21.2154L19.4182 6.03804L19.4175 11.1582L21.4172 11.1582Z" fill="#2A2A2D"/>
<path d="M21.4172 11.1582L21.4172 32.4915L42.7505 32.4915L42.7505 11.1582L21.4172 11.1582ZM21.4172 5.6159L42.7505 5.6159L42.7505 5.36719L42.7447 5.11855L21.4172 5.6159ZM18.4177 2.61635L18.915 -18.7112L18.6677 -18.717L18.4204 -18.717L18.4177 2.61635ZM12.8747 2.61564L12.8774 -18.7177L-8.45868 -18.7204V2.61564L12.8747 2.61564ZM12.8747 4.61534H-8.45868L-8.45868 25.9457L12.8717 25.9487L12.8747 4.61534ZM18.0118 4.61605L33.115 19.6827L69.4198 -16.7102L18.0147 -16.7173L18.0118 4.61605ZM2.86343 19.8012L-12.2398 4.73452L-27.2882 19.8194L-12.2215 34.8861L2.86343 19.8012ZM4.27765 21.2154L-10.8073 36.3003L4.29595 51.4036L19.3809 36.282L4.27765 21.2154ZM19.4182 6.03804L40.7516 6.04099L40.7587 -45.5608L4.31499 -9.0286L19.4182 6.03804ZM19.4175 11.1582L-1.91582 11.1553L-1.91877 32.4915L19.4175 32.4915L19.4175 11.1582ZM21.4172 11.1582L42.7505 11.1582L42.7505 5.6159L21.4172 5.6159L0.0838752 5.61589L0.0838743 11.1582L21.4172 11.1582ZM21.4172 5.6159L42.7447 5.11855C42.5984 -1.1555 40.0408 -7.13204 35.6032 -11.5697L20.5183 3.51528L5.43333 18.6002C2.11288 15.2798 0.199148 10.8078 0.0896729 6.11325L21.4172 5.6159ZM20.5183 3.51528L35.6032 -11.5697C31.1656 -16.0073 25.1891 -18.5649 18.915 -18.7112L18.4177 2.61635L17.9203 23.9439C13.2257 23.8344 8.75379 21.9207 5.43333 18.6002L20.5183 3.51528ZM18.4177 2.61635L18.4204 -18.717L12.8774 -18.7177L12.8747 2.61564L12.8719 23.949L18.4149 23.9497L18.4177 2.61635ZM12.8747 2.61564L-8.45868 2.61564V4.61534H12.8747H34.208L34.208 2.61564H12.8747ZM12.8747 4.61534L12.8717 25.9487L18.0088 25.9494L18.0118 4.61605L18.0147 -16.7173L12.8776 -16.718L12.8747 4.61534ZM18.0118 4.61605L2.90856 -10.4506L-12.2398 4.73452L2.86343 19.8012L17.9667 34.8678L33.115 19.6827L18.0118 4.61605ZM2.86343 19.8012L-12.2215 34.8861L-10.8073 36.3003L4.27765 21.2154L19.3626 6.13043L17.9484 4.71622L2.86343 19.8012ZM4.27765 21.2154L19.3809 36.282L34.5214 21.1047L19.4182 6.03804L4.31499 -9.0286L-10.8256 6.14874L4.27765 21.2154ZM19.4182 6.03804L-1.91512 6.03509L-1.91582 11.1553L19.4175 11.1582L40.7508 11.1611L40.7516 6.04099L19.4182 6.03804ZM19.4175 11.1582L19.4175 32.4915L21.4172 32.4915L21.4172 11.1582L21.4172 -10.1751L19.4175 -10.1751L19.4175 11.1582Z" fill="white" mask="url(#path-1-inside-1_2062_108)"/>
</g>
<defs>
<clipPath id="clip0_2062_108">
<rect width="24" height="24" fill="white"/>
</clipPath>
</defs>
</svg>
