<svg width="44" height="44" viewBox="0 0 44 44" fill="none" xmlns="http://www.w3.org/2000/svg">
<rect width="44" height="44" rx="4" fill="#F0F1F5"/>
<g clip-path="url(#clip0_148_177)">
<path d="M33.0998 10.8997C32.5161 10.3437 31.7409 10.0336 30.9348 10.0336C30.1287 10.0336 29.3535 10.3437 28.7698 10.8997L17.5628 22.0997C17.2141 22.0326 16.8599 21.9991 16.5048 21.9997C15.783 21.9976 15.068 22.1387 14.4011 22.4149C13.7342 22.6911 13.1288 23.0969 12.6198 23.6087C10.6998 25.5327 10.1858 31.6277 10.0998 32.8297L10.0238 33.9757L11.1688 33.8957C12.3688 33.8137 18.4688 33.3027 20.3908 31.3797C21.0266 30.7421 21.4959 29.958 21.7575 29.0964C22.019 28.2348 22.0648 27.3221 21.8908 26.4387L33.0998 15.2297C33.6725 14.6547 33.994 13.8762 33.994 13.0647C33.994 12.2531 33.6725 11.4747 33.0998 10.8997ZM18.9768 29.9657C18.0468 30.8947 14.7098 31.5257 12.2028 31.7957C12.4858 29.1957 13.1458 25.9117 14.0338 25.0227C14.7 24.4226 15.5712 24.1011 16.4675 24.1245C17.3638 24.1479 18.217 24.5145 18.851 25.1485C19.485 25.7825 19.8515 26.6356 19.8749 27.532C19.8983 28.4283 19.5769 29.2994 18.9768 29.9657ZM31.6878 13.8157L21.0668 24.4377C20.6722 23.8402 20.1622 23.3275 19.5668 22.9297L30.1838 12.3117C30.3858 12.1187 30.6544 12.0111 30.9338 12.0111C31.2132 12.0111 31.4818 12.1187 31.6838 12.3117C31.783 12.4101 31.8618 12.5271 31.9157 12.656C31.9696 12.7849 31.9975 12.9231 31.9979 13.0628C31.9983 13.2025 31.9711 13.341 31.9179 13.4701C31.8647 13.5993 31.7865 13.7167 31.6878 13.8157Z" fill="url(#paint0_linear_148_177)"/>
</g>
<defs>
<linearGradient id="paint0_linear_148_177" x1="10.1736" y1="10.1832" x2="33.9661" y2="34.0036" gradientUnits="userSpaceOnUse">
<stop offset="0.00216856" stop-color="#7F00FF"/>
<stop offset="1" stop-color="#24C0F4"/>
</linearGradient>
<clipPath id="clip0_148_177">
<rect width="24" height="24" fill="white" transform="translate(10 10)"/>
</clipPath>
</defs>
</svg>
