<svg width="44" height="44" viewBox="0 0 44 44" fill="none" xmlns="http://www.w3.org/2000/svg">
<rect width="44" height="44" rx="4" fill="#F0F1F5"/>
<path d="M31 11.0001H13C12.2044 11.0001 11.4413 11.3161 10.8787 11.8787C10.3161 12.4413 10 13.2044 10 14.0001V33.0001H34V14.0001C34 13.2044 33.6839 12.4413 33.1213 11.8787C32.5587 11.3161 31.7956 11.0001 31 11.0001ZM13 13.0001H31C31.2652 13.0001 31.5196 13.1054 31.7071 13.293C31.8946 13.4805 32 13.7348 32 14.0001V17.0001H12V14.0001C12 13.7348 12.1054 13.4805 12.2929 13.293C12.4804 13.1054 12.7348 13.0001 13 13.0001ZM12 31.0001V19.0001H32V31.0001H12ZM15 22.0001H29V24.0001H15V22.0001ZM15 26.0001H25V28.0001H15V26.0001ZM13 15.0001C13 14.8023 13.0586 14.6089 13.1685 14.4445C13.2784 14.28 13.4346 14.1519 13.6173 14.0762C13.8 14.0005 14.0011 13.9807 14.1951 14.0193C14.3891 14.0579 14.5673 14.1531 14.7071 14.293C14.847 14.4328 14.9422 14.611 14.9808 14.805C15.0194 14.999 14.9996 15.2 14.9239 15.3827C14.8482 15.5655 14.72 15.7216 14.5556 15.8315C14.3911 15.9414 14.1978 16.0001 14 16.0001C13.7348 16.0001 13.4804 15.8947 13.2929 15.7072C13.1054 15.5196 13 15.2653 13 15.0001ZM16 15.0001C16 14.8023 16.0586 14.6089 16.1685 14.4445C16.2784 14.28 16.4346 14.1519 16.6173 14.0762C16.8 14.0005 17.0011 13.9807 17.1951 14.0193C17.3891 14.0579 17.5673 14.1531 17.7071 14.293C17.847 14.4328 17.9422 14.611 17.9808 14.805C18.0194 14.999 17.9996 15.2 17.9239 15.3827C17.8482 15.5655 17.72 15.7216 17.5556 15.8315C17.3911 15.9414 17.1978 16.0001 17 16.0001C16.7348 16.0001 16.4804 15.8947 16.2929 15.7072C16.1054 15.5196 16 15.2653 16 15.0001ZM19 15.0001C19 14.8023 19.0586 14.6089 19.1685 14.4445C19.2784 14.28 19.4346 14.1519 19.6173 14.0762C19.8 14.0005 20.0011 13.9807 20.1951 14.0193C20.3891 14.0579 20.5673 14.1531 20.7071 14.293C20.847 14.4328 20.9422 14.611 20.9808 14.805C21.0194 14.999 20.9996 15.2 20.9239 15.3827C20.8482 15.5655 20.72 15.7216 20.5556 15.8315C20.3911 15.9414 20.1978 16.0001 20 16.0001C19.7348 16.0001 19.4804 15.8947 19.2929 15.7072C19.1054 15.5196 19 15.2653 19 15.0001Z" fill="url(#paint0_linear_148_184)"/>
<defs>
<linearGradient id="paint0_linear_148_184" x1="10.15" y1="11.1376" x2="31.93" y2="34.8976" gradientUnits="userSpaceOnUse">
<stop offset="0.00216856" stop-color="#7F00FF"/>
<stop offset="1" stop-color="#24C0F4"/>
</linearGradient>
</defs>
</svg>
