<svg width="44" height="44" viewBox="0 0 44 44" fill="none" xmlns="http://www.w3.org/2000/svg">
<rect width="44" height="44" rx="4" fill="#F0F1F5"/>
<path d="M24.4141 10H15.0001C14.2045 10 13.4414 10.3161 12.8788 10.8787C12.3162 11.4413 12.0001 12.2044 12.0001 13V34H32.0001V17.586L24.4141 10ZM25.0001 13.414L28.5861 17H25.0001V13.414ZM14.0001 32V13C14.0001 12.7348 14.1055 12.4804 14.293 12.2929C14.4806 12.1054 14.7349 12 15.0001 12H23.0001V19H30.0001V32H14.0001ZM25.2931 23.122L26.7071 24.536L23.1211 28.121C22.8425 28.3996 22.5118 28.6207 22.1478 28.7715C21.7838 28.9222 21.3936 28.9999 20.9996 28.9999C20.6056 28.9999 20.2155 28.9222 19.8515 28.7715C19.4874 28.6207 19.1567 28.3996 18.8781 28.121L17.2931 26.536L18.7071 25.122L20.2931 26.707C20.4835 26.889 20.7367 26.9906 21.0001 26.9906C21.2635 26.9906 21.5168 26.889 21.7071 26.707L25.2931 23.122Z" fill="#1AB31F"/>
</svg>
