<svg width="44" height="44" viewBox="0 0 44 44" fill="none" xmlns="http://www.w3.org/2000/svg">
<rect width="44" height="44" rx="4" fill="#F0F1F5"/>
<path d="M24.4141 10H15.0001C14.2045 10 13.4414 10.3161 12.8788 10.8787C12.3162 11.4413 12.0001 12.2044 12.0001 13V34H32.0001V17.586L24.4141 10ZM25.0001 13.414L28.5861 17H25.0001V13.414ZM14.0001 32V13C14.0001 12.7348 14.1055 12.4804 14.293 12.2929C14.4806 12.1054 14.7349 12 15.0001 12H23.0001V19H30.0001V32H14.0001ZM25.9571 22.457L23.4141 25L25.9571 27.543L24.5431 28.957L22.0001 26.414L19.4571 28.957L18.0431 27.543L20.5861 25L18.0431 22.457L19.4571 21.043L22.0001 23.586L24.5431 21.043L25.9571 22.457Z" fill="#DC1313"/>
</svg>
