<svg width="13" height="12" viewBox="0 0 13 12" fill="none" xmlns="http://www.w3.org/2000/svg">
<mask id="path-1-inside-1_2062_235" fill="white">
<path d="M12.4141 4.58597L8.12112 0.292969L6.70712 1.70697L10.0001 4.99997H0.00012207V6.99997H10.0001L6.70712 10.293L8.12112 11.707L12.4141 7.41397C12.7891 7.03891 12.9997 6.5303 12.9997 5.99997C12.9997 5.46964 12.7891 4.96102 12.4141 4.58597Z"/>
</mask>
<path d="M12.4141 4.58597L8.12112 0.292969L6.70712 1.70697L10.0001 4.99997H0.00012207V6.99997H10.0001L6.70712 10.293L8.12112 11.707L12.4141 7.41397C12.7891 7.03891 12.9997 6.5303 12.9997 5.99997C12.9997 5.46964 12.7891 4.96102 12.4141 4.58597Z" fill="white"/>
<path d="M8.12112 0.292969L23.2061 -14.792L8.12113 -29.8769L-6.96382 -14.792L8.12112 0.292969ZM6.70712 1.70697L-8.37782 -13.378L-23.4628 1.70696L-8.37782 16.7919L6.70712 1.70697ZM10.0001 4.99997V26.3333H61.5033L25.0851 -10.085L10.0001 4.99997ZM0.00012207 4.99997V-16.3334H-21.3332V4.99997H0.00012207ZM0.00012207 6.99997H-21.3332V28.3333H0.00012207V6.99997ZM10.0001 6.99997L25.0851 22.0849L61.5034 -14.3334H10.0001V6.99997ZM6.70712 10.293L-8.37782 -4.79198L-23.4628 10.293L-8.37783 25.3779L6.70712 10.293ZM8.12112 11.707L-6.96383 26.7919L8.12112 41.8769L23.2061 26.7919L8.12112 11.707ZM12.4141 7.41397L27.4991 22.4989L27.5013 22.4966L12.4141 7.41397ZM12.4141 4.58597L27.4991 -10.499L23.2061 -14.792L8.12112 0.292969L-6.96383 15.3779L-2.67083 19.6709L12.4141 4.58597ZM8.12112 0.292969L-6.96382 -14.792L-8.37782 -13.378L6.70712 1.70697L21.7921 16.7919L23.2061 15.3779L8.12112 0.292969ZM6.70712 1.70697L-8.37782 16.7919L-5.08482 20.0849L10.0001 4.99997L25.0851 -10.085L21.7921 -13.378L6.70712 1.70697ZM10.0001 4.99997V-16.3334H0.00012207V4.99997V26.3333H10.0001V4.99997ZM0.00012207 4.99997H-21.3332V6.99997H0.00012207H21.3335V4.99997H0.00012207ZM0.00012207 6.99997V28.3333H10.0001V6.99997V-14.3334H0.00012207V6.99997ZM10.0001 6.99997L-5.08482 -8.08498L-8.37782 -4.79198L6.70712 10.293L21.7921 25.3779L25.0851 22.0849L10.0001 6.99997ZM6.70712 10.293L-8.37783 25.3779L-6.96383 26.7919L8.12112 11.707L23.2061 -3.37797L21.7921 -4.79197L6.70712 10.293ZM8.12112 11.707L23.2061 26.7919L27.4991 22.4989L12.4141 7.41397L-2.67083 -7.67097L-6.96383 -3.37797L8.12112 11.707ZM12.4141 7.41397L27.5013 22.4966C31.8757 18.121 34.333 12.1871 34.333 5.99997H12.9997H-8.33364C-8.33364 0.87345 -6.29753 -4.04317 -2.6731 -7.6687L12.4141 7.41397ZM12.9997 5.99997H34.333C34.333 -0.187207 31.8757 -6.12106 27.5013 -10.4967L12.4141 4.58597L-2.6731 19.6686C-6.29753 16.0431 -8.33364 11.1265 -8.33364 5.99997H12.9997Z" fill="white" mask="url(#path-1-inside-1_2062_235)"/>
</svg>
