<svg width="13" height="12" viewBox="0 0 13 12" fill="none" xmlns="http://www.w3.org/2000/svg">
<mask id="path-1-inside-1_2062_264" fill="white">
<path d="M12.9998 4.99997H2.99982L6.29282 1.70697L4.87882 0.292969L0.585817 4.58597C0.210875 4.96102 0.000244141 5.46964 0.000244141 5.99997C0.000244141 6.5303 0.210875 7.03891 0.585817 7.41397L4.87882 11.707L6.29282 10.293L2.99982 6.99997H12.9998V4.99997Z"/>
</mask>
<path d="M12.9998 4.99997H2.99982L6.29282 1.70697L4.87882 0.292969L0.585817 4.58597C0.210875 4.96102 0.000244141 5.46964 0.000244141 5.99997C0.000244141 6.5303 0.210875 7.03891 0.585817 7.41397L4.87882 11.707L6.29282 10.293L2.99982 6.99997H12.9998V4.99997Z" fill="white"/>
<path d="M12.9998 4.99997H34.3332V-16.3334H12.9998V4.99997ZM2.99982 4.99997L-12.0851 -10.085L-48.5034 26.3333H2.99982V4.99997ZM6.29282 1.70697L21.3778 16.7919L36.4627 1.70696L21.3778 -13.378L6.29282 1.70697ZM4.87882 0.292969L19.9638 -14.792L4.87881 -29.8769L-10.2061 -14.792L4.87882 0.292969ZM0.585817 4.58597L-14.4991 -10.499L-14.5014 -10.4967L0.585817 4.58597ZM0.000244141 5.99997H21.3336H0.000244141ZM0.585817 7.41397L-14.5014 22.4966L-14.4991 22.4989L0.585817 7.41397ZM4.87882 11.707L-10.2061 26.7919L4.87882 41.8769L19.9638 26.7919L4.87882 11.707ZM6.29282 10.293L21.3778 25.3779L36.4627 10.293L21.3778 -4.79198L6.29282 10.293ZM2.99982 6.99997V-14.3334H-48.5034L-12.0851 22.0849L2.99982 6.99997ZM12.9998 6.99997V28.3333H34.3332V6.99997H12.9998ZM12.9998 4.99997V-16.3334H2.99982V4.99997V26.3333H12.9998V4.99997ZM2.99982 4.99997L18.0848 20.0849L21.3778 16.7919L6.29282 1.70697L-8.79213 -13.378L-12.0851 -10.085L2.99982 4.99997ZM6.29282 1.70697L21.3778 -13.378L19.9638 -14.792L4.87882 0.292969L-10.2061 15.3779L-8.79212 16.7919L6.29282 1.70697ZM4.87882 0.292969L-10.2061 -14.792L-14.4991 -10.499L0.585817 4.58597L15.6708 19.6709L19.9638 15.3779L4.87882 0.292969ZM0.585817 4.58597L-14.5014 -10.4967C-18.8757 -6.12105 -21.3331 -0.187194 -21.3331 5.99997H0.000244141H21.3336C21.3336 11.1265 19.2975 16.0431 15.673 19.6686L0.585817 4.58597ZM0.000244141 5.99997H-21.3331C-21.3331 12.1871 -18.8757 18.121 -14.5014 22.4966L0.585817 7.41397L15.673 -7.6687C19.2975 -4.04316 21.3336 0.873463 21.3336 5.99997H0.000244141ZM0.585817 7.41397L-14.4991 22.4989L-10.2061 26.7919L4.87882 11.707L19.9638 -3.37797L15.6708 -7.67097L0.585817 7.41397ZM4.87882 11.707L19.9638 26.7919L21.3778 25.3779L6.29282 10.293L-8.79213 -4.79197L-10.2061 -3.37797L4.87882 11.707ZM6.29282 10.293L21.3778 -4.79198L18.0848 -8.08498L2.99982 6.99997L-12.0851 22.0849L-8.79213 25.3779L6.29282 10.293ZM2.99982 6.99997V28.3333H12.9998V6.99997V-14.3334H2.99982V6.99997ZM12.9998 6.99997H34.3332V4.99997H12.9998H-8.33352V6.99997H12.9998Z" fill="white" mask="url(#path-1-inside-1_2062_264)"/>
</svg>
