<svg width="24" height="24" viewBox="0 0 24 24" fill="none" xmlns="http://www.w3.org/2000/svg">
<g clip-path="url(#clip0_151_231)">
<path d="M24 16.0005V10.0005L16.09 10.0005C16.3273 8.60395 17.0505 7.33622 18.132 6.42129C19.2134 5.50636 20.5835 5.00312 22 5.00049L22 3.00049C19.879 3.00287 17.8456 3.84649 16.3458 5.34627C14.846 6.84604 14.0024 8.87949 14 11.0005L14 20.0005H20C21.0609 20.0005 22.0783 19.5791 22.8284 18.8289C23.5786 18.0788 24 17.0614 24 16.0005V16.0005Z" fill="#2A2A2D"/>
<path d="M5.99986 20.0005C7.06073 20.0005 8.07814 19.5791 8.82829 18.8289C9.57844 18.0788 9.99986 17.0614 9.99986 16.0005L9.99986 10.0005L2.08986 10.0005C2.32713 8.60395 3.05039 7.33622 4.13183 6.42129C5.21328 5.50636 6.58331 5.00312 7.99986 5.00049V3.00049C5.87886 3.00287 3.84542 3.84649 2.34564 5.34627C0.845865 6.84604 0.00224495 8.87949 -0.000137329 11.0005L-0.000137329 20.0005H5.99986Z" fill="#2A2A2D"/>
</g>
<defs>
<clipPath id="clip0_151_231">
<rect width="24" height="24" fill="white" transform="matrix(-1 0 0 -1 24 24)"/>
</clipPath>
</defs>
</svg>
