<svg width="44" height="44" viewBox="0 0 44 44" fill="none" xmlns="http://www.w3.org/2000/svg">
<rect width="44" height="44" rx="4" fill="#F0F1F5"/>
<g clip-path="url(#clip0_148_191)">
<path d="M13.1667 23H14.75V25H13.1667V23ZM17.125 25H18.7083V23H17.125V25ZM13.1667 29H14.75V27H13.1667V29ZM17.125 29H18.7083V27H17.125V29ZM13.1667 17H14.75V15H13.1667V17ZM17.125 17H18.7083V15H17.125V17ZM13.1667 21H14.75V19H13.1667V21ZM17.125 21H18.7083V19H17.125V21ZM29 18V34H10V13C10 12.2044 10.2502 11.4413 10.6956 10.8787C11.141 10.3161 11.7451 10 12.375 10H20.2917C20.9216 10 21.5256 10.3161 21.971 10.8787C22.4164 11.4413 22.6667 12.2044 22.6667 13V15H26.625C27.2549 15 27.859 15.3161 28.3044 15.8787C28.7498 16.4413 29 17.2044 29 18ZM21.0833 13C21.0833 12.7348 20.9999 12.4804 20.8515 12.2929C20.703 12.1054 20.5016 12 20.2917 12H12.375C12.165 12 11.9637 12.1054 11.8152 12.2929C11.6667 12.4804 11.5833 12.7348 11.5833 13V32H21.0833V13ZM27.4167 18C27.4167 17.7348 27.3333 17.4804 27.1848 17.2929C27.0363 17.1054 26.835 17 26.625 17H22.6667V32H27.4167V18ZM24.25 25H25.8333V23H24.25V25ZM24.25 29H25.8333V27H24.25V29ZM24.25 21H25.8333V19H24.25V21Z" fill="url(#paint0_linear_148_191)"/>
<g clip-path="url(#clip1_148_191)">
<path d="M27.999 10C29.5898 10.0017 31.1154 10.6339 32.2402 11.7588C33.3651 12.8836 33.9973 14.4092 33.999 16C33.999 17.1865 33.6474 18.3464 32.9883 19.333C32.329 20.3197 31.3913 21.0888 30.2949 21.543C29.8762 21.7164 29.4414 21.8403 28.999 21.915V19.5391C29.2231 19.2057 29.4284 18.8593 29.6104 18.5H28.999V17.5H30.0107C30.1644 17.0147 30.2449 16.5091 30.249 16C30.2449 15.4909 30.1644 14.9853 30.0107 14.5H25.9873C25.8336 14.9853 25.7531 15.4909 25.749 16H24.749C24.7522 15.4936 24.8196 14.9896 24.9492 14.5H23.2295C23.0758 14.9882 22.999 15.4941 22.999 16H22C22 15.2159 22.1531 14.4356 22.4561 13.7041C22.9102 12.6077 23.6793 11.67 24.666 11.0107C25.6526 10.3517 26.8125 10 27.999 10ZM30.7119 18.5C30.3514 19.3355 29.877 20.1172 29.3018 20.8223C30.5749 20.4758 31.6599 19.6412 32.3223 18.5H30.7119ZM31.0488 14.5C31.1784 14.9896 31.2458 15.4936 31.249 16C31.2458 16.5064 31.1784 17.0104 31.0488 17.5H32.7676C33.0749 16.5236 33.0749 15.4764 32.7676 14.5H31.0488ZM26.6992 11.1777C25.4251 11.5236 24.3387 12.3583 23.6758 13.5H25.2861C25.6474 12.6644 26.1231 11.8826 26.6992 11.1777ZM27.999 11.2061C27.355 11.8896 26.8121 12.6621 26.3877 13.5H29.6104C29.1862 12.662 28.6433 11.8894 27.999 11.2061ZM29.3018 11.1777C29.877 11.8828 30.3514 12.6645 30.7119 13.5H32.3223C31.6599 12.3588 30.5749 11.5242 29.3018 11.1777Z" fill="url(#paint1_linear_148_191)"/>
</g>
</g>
<defs>
<linearGradient id="paint0_linear_148_191" x1="10.1187" y1="10.15" x2="33.3324" y2="28.5275" gradientUnits="userSpaceOnUse">
<stop offset="0.00216856" stop-color="#7F00FF"/>
<stop offset="1" stop-color="#24C0F4"/>
</linearGradient>
<linearGradient id="paint1_linear_148_191" x1="22.075" y1="10.0745" x2="33.9153" y2="21.9982" gradientUnits="userSpaceOnUse">
<stop offset="0.00216856" stop-color="#7F00FF"/>
<stop offset="1" stop-color="#24C0F4"/>
</linearGradient>
<clipPath id="clip0_148_191">
<rect width="24" height="24" fill="white" transform="translate(10 10)"/>
</clipPath>
<clipPath id="clip1_148_191">
<rect width="12" height="12" fill="white" transform="translate(22 10)"/>
</clipPath>
</defs>
</svg>
